<?xml version="1.0" encoding="us-ascii" standalone="no"?><svg xmlns="http://www.w3.org/2000/svg" xmlns:xlink="http://www.w3.org/1999/xlink" contentStyleType="text/css" height="559px" preserveAspectRatio="none" style="width:548px;height:559px;background:#FFFFFF;" version="1.1" viewBox="0 0 548 559" width="548px" zoomAndPan="magnify"><defs/><g><!--class Usuario--><g id="elem_Usuario"><rect codeLine="1" fill="#F1F1F1" height="100.8281" id="Usuario" rx="2.5" ry="2.5" style="stroke:#181818;stroke-width:0.5;" width="161" x="195.5" y="7"/><ellipse cx="247.75" cy="23" fill="#ADD1B2" rx="11" ry="11" style="stroke:#181818;stroke-width:1.0;"/><path d="M250.5156,18.875 Q250.6719,18.6563 250.8594,18.5469 Q251.0469,18.4375 251.2656,18.4375 Q251.6406,18.4375 251.875,18.6953 Q252.1094,18.9531 252.1094,19.5625 L252.1094,21.0156 Q252.1094,21.625 251.875,21.8906 Q251.6406,22.1563 251.2656,22.1563 Q250.9219,22.1563 250.7188,21.9531 Q250.5156,21.7656 250.4063,21.25 Q250.3594,20.8906 250.1719,20.7031 Q249.8438,20.3281 249.2344,20.1094 Q248.625,19.8906 248,19.8906 Q247.2344,19.8906 246.6016,20.2188 Q245.9688,20.5469 245.4766,21.2969 Q244.9844,22.0469 244.9844,23.0781 L244.9844,24.1719 Q244.9844,25.4063 245.875,26.2266 Q246.7656,27.0469 248.3594,27.0469 Q249.2969,27.0469 249.9531,26.7969 Q250.3438,26.6406 250.7656,26.2031 Q251.0313,25.9375 251.1797,25.8594 Q251.3281,25.7813 251.5313,25.7813 Q251.8594,25.7813 252.1172,26.0391 Q252.375,26.2969 252.375,26.6406 Q252.375,26.9844 252.0313,27.3906 Q251.5313,27.9688 250.7344,28.2969 Q249.6563,28.75 248.3594,28.75 Q246.8438,28.75 245.6406,28.125 Q244.6563,27.625 243.9688,26.5547 Q243.2813,25.4844 243.2813,24.2031 L243.2813,23.0469 Q243.2813,21.7188 243.8984,20.5703 Q244.5156,19.4219 245.6094,18.8047 Q246.7031,18.1875 247.9375,18.1875 Q248.6719,18.1875 249.3203,18.3516 Q249.9688,18.5156 250.5156,18.875 Z " fill="#000000"/><text fill="#000000" font-family="sans-serif" font-size="14" lengthAdjust="spacing" textLength="48" x="268.25" y="28.7285">Usuario</text><line style="stroke:#181818;stroke-width:0.5;" x1="196.5" x2="355.5" y1="39" y2="39"/><rect fill="none" height="6" style="stroke:#C82930;stroke-width:1.0;" width="6" x="203.5" y="50.3047"/><text fill="#000000" font-family="sans-serif" font-size="14" lengthAdjust="spacing" textLength="106" x="215.5" y="57.5332">username: string</text><rect fill="none" height="6" style="stroke:#C82930;stroke-width:1.0;" width="6" x="203.5" y="67.9141"/><text fill="#000000" font-family="sans-serif" font-size="14" lengthAdjust="spacing" textLength="135" x="215.5" y="75.1426">passwordHash: string</text><rect fill="none" height="6" style="stroke:#C82930;stroke-width:1.0;" width="6" x="203.5" y="85.5234"/><text fill="#000000" font-family="sans-serif" font-size="14" lengthAdjust="spacing" textLength="123" x="215.5" y="92.752">createdAt: datetime</text><line style="stroke:#181818;stroke-width:0.5;" x1="196.5" x2="355.5" y1="99.8281" y2="99.8281"/></g><!--class Topico--><g id="elem_Topico"><rect codeLine="7" fill="#F1F1F1" height="118.4375" id="Topico" rx="2.5" ry="2.5" style="stroke:#181818;stroke-width:0.5;" width="156" x="7" y="177"/><ellipse cx="59.25" cy="193" fill="#ADD1B2" rx="11" ry="11" style="stroke:#181818;stroke-width:1.0;"/><path d="M62.0156,188.875 Q62.1719,188.6563 62.3594,188.5469 Q62.5469,188.4375 62.7656,188.4375 Q63.1406,188.4375 63.375,188.6953 Q63.6094,188.9531 63.6094,189.5625 L63.6094,191.0156 Q63.6094,191.625 63.375,191.8906 Q63.1406,192.1563 62.7656,192.1563 Q62.4219,192.1563 62.2188,191.9531 Q62.0156,191.7656 61.9063,191.25 Q61.8594,190.8906 61.6719,190.7031 Q61.3438,190.3281 60.7344,190.1094 Q60.125,189.8906 59.5,189.8906 Q58.7344,189.8906 58.1016,190.2188 Q57.4688,190.5469 56.9766,191.2969 Q56.4844,192.0469 56.4844,193.0781 L56.4844,194.1719 Q56.4844,195.4063 57.375,196.2266 Q58.2656,197.0469 59.8594,197.0469 Q60.7969,197.0469 61.4531,196.7969 Q61.8438,196.6406 62.2656,196.2031 Q62.5313,195.9375 62.6797,195.8594 Q62.8281,195.7813 63.0313,195.7813 Q63.3594,195.7813 63.6172,196.0391 Q63.875,196.2969 63.875,196.6406 Q63.875,196.9844 63.5313,197.3906 Q63.0313,197.9688 62.2344,198.2969 Q61.1563,198.75 59.8594,198.75 Q58.3438,198.75 57.1406,198.125 Q56.1563,197.625 55.4688,196.5547 Q54.7813,195.4844 54.7813,194.2031 L54.7813,193.0469 Q54.7813,191.7188 55.3984,190.5703 Q56.0156,189.4219 57.1094,188.8047 Q58.2031,188.1875 59.4375,188.1875 Q60.1719,188.1875 60.8203,188.3516 Q61.4688,188.5156 62.0156,188.875 Z " fill="#000000"/><text fill="#000000" font-family="sans-serif" font-size="14" lengthAdjust="spacing" textLength="43" x="79.75" y="198.7285">Topico</text><line style="stroke:#181818;stroke-width:0.5;" x1="8" x2="162" y1="209" y2="209"/><rect fill="none" height="6" style="stroke:#C82930;stroke-width:1.0;" width="6" x="15" y="220.3047"/><text fill="#000000" font-family="sans-serif" font-size="14" lengthAdjust="spacing" textLength="78" x="27" y="227.5332">name: string</text><rect fill="none" height="6" style="stroke:#C82930;stroke-width:1.0;" width="6" x="15" y="237.9141"/><text fill="#000000" font-family="sans-serif" font-size="14" lengthAdjust="spacing" textLength="101" x="27" y="245.1426">creator: Usuario</text><rect fill="none" height="6" style="stroke:#C82930;stroke-width:1.0;" width="6" x="15" y="255.5234"/><text fill="#000000" font-family="sans-serif" font-size="14" lengthAdjust="spacing" textLength="123" x="27" y="262.752">createdAt: datetime</text><rect fill="none" height="6" style="stroke:#C82930;stroke-width:1.0;" width="6" x="15" y="273.1328"/><text fill="#000000" font-family="sans-serif" font-size="14" lengthAdjust="spacing" textLength="130" x="27" y="280.3613">replicas: List&lt;string&gt;</text><line style="stroke:#181818;stroke-width:0.5;" x1="8" x2="162" y1="287.4375" y2="287.4375"/></g><!--class Cola--><g id="elem_Cola"><rect codeLine="14" fill="#F1F1F1" height="118.4375" id="Cola" rx="2.5" ry="2.5" style="stroke:#181818;stroke-width:0.5;" width="156" x="198" y="177"/><ellipse cx="257.25" cy="193" fill="#ADD1B2" rx="11" ry="11" style="stroke:#181818;stroke-width:1.0;"/><path d="M260.0156,188.875 Q260.1719,188.6563 260.3594,188.5469 Q260.5469,188.4375 260.7656,188.4375 Q261.1406,188.4375 261.375,188.6953 Q261.6094,188.9531 261.6094,189.5625 L261.6094,191.0156 Q261.6094,191.625 261.375,191.8906 Q261.1406,192.1563 260.7656,192.1563 Q260.4219,192.1563 260.2188,191.9531 Q260.0156,191.7656 259.9063,191.25 Q259.8594,190.8906 259.6719,190.7031 Q259.3438,190.3281 258.7344,190.1094 Q258.125,189.8906 257.5,189.8906 Q256.7344,189.8906 256.1016,190.2188 Q255.4688,190.5469 254.9766,191.2969 Q254.4844,192.0469 254.4844,193.0781 L254.4844,194.1719 Q254.4844,195.4063 255.375,196.2266 Q256.2656,197.0469 257.8594,197.0469 Q258.7969,197.0469 259.4531,196.7969 Q259.8438,196.6406 260.2656,196.2031 Q260.5313,195.9375 260.6797,195.8594 Q260.8281,195.7813 261.0313,195.7813 Q261.3594,195.7813 261.6172,196.0391 Q261.875,196.2969 261.875,196.6406 Q261.875,196.9844 261.5313,197.3906 Q261.0313,197.9688 260.2344,198.2969 Q259.1563,198.75 257.8594,198.75 Q256.3438,198.75 255.1406,198.125 Q254.1563,197.625 253.4688,196.5547 Q252.7813,195.4844 252.7813,194.2031 L252.7813,193.0469 Q252.7813,191.7188 253.3984,190.5703 Q254.0156,189.4219 255.1094,188.8047 Q256.2031,188.1875 257.4375,188.1875 Q258.1719,188.1875 258.8203,188.3516 Q259.4688,188.5156 260.0156,188.875 Z " fill="#000000"/><text fill="#000000" font-family="sans-serif" font-size="14" lengthAdjust="spacing" textLength="29" x="277.75" y="198.7285">Cola</text><line style="stroke:#181818;stroke-width:0.5;" x1="199" x2="353" y1="209" y2="209"/><rect fill="none" height="6" style="stroke:#C82930;stroke-width:1.0;" width="6" x="206" y="220.3047"/><text fill="#000000" font-family="sans-serif" font-size="14" lengthAdjust="spacing" textLength="78" x="218" y="227.5332">name: string</text><rect fill="none" height="6" style="stroke:#C82930;stroke-width:1.0;" width="6" x="206" y="237.9141"/><text fill="#000000" font-family="sans-serif" font-size="14" lengthAdjust="spacing" textLength="101" x="218" y="245.1426">creator: Usuario</text><rect fill="none" height="6" style="stroke:#C82930;stroke-width:1.0;" width="6" x="206" y="255.5234"/><text fill="#000000" font-family="sans-serif" font-size="14" lengthAdjust="spacing" textLength="123" x="218" y="262.752">createdAt: datetime</text><rect fill="none" height="6" style="stroke:#C82930;stroke-width:1.0;" width="6" x="206" y="273.1328"/><text fill="#000000" font-family="sans-serif" font-size="14" lengthAdjust="spacing" textLength="130" x="218" y="280.3613">replicas: List&lt;string&gt;</text><line style="stroke:#181818;stroke-width:0.5;" x1="199" x2="353" y1="287.4375" y2="287.4375"/></g><!--class Mensaje--><g id="elem_Mensaje"><rect codeLine="21" fill="#F1F1F1" height="188.875" id="Mensaje" rx="2.5" ry="2.5" style="stroke:#181818;stroke-width:0.5;" width="207" x="76.5" y="364"/><ellipse cx="149.25" cy="380" fill="#ADD1B2" rx="11" ry="11" style="stroke:#181818;stroke-width:1.0;"/><path d="M152.0156,375.875 Q152.1719,375.6563 152.3594,375.5469 Q152.5469,375.4375 152.7656,375.4375 Q153.1406,375.4375 153.375,375.6953 Q153.6094,375.9531 153.6094,376.5625 L153.6094,378.0156 Q153.6094,378.625 153.375,378.8906 Q153.1406,379.1563 152.7656,379.1563 Q152.4219,379.1563 152.2188,378.9531 Q152.0156,378.7656 151.9063,378.25 Q151.8594,377.8906 151.6719,377.7031 Q151.3438,377.3281 150.7344,377.1094 Q150.125,376.8906 149.5,376.8906 Q148.7344,376.8906 148.1016,377.2188 Q147.4688,377.5469 146.9766,378.2969 Q146.4844,379.0469 146.4844,380.0781 L146.4844,381.1719 Q146.4844,382.4063 147.375,383.2266 Q148.2656,384.0469 149.8594,384.0469 Q150.7969,384.0469 151.4531,383.7969 Q151.8438,383.6406 152.2656,383.2031 Q152.5313,382.9375 152.6797,382.8594 Q152.8281,382.7813 153.0313,382.7813 Q153.3594,382.7813 153.6172,383.0391 Q153.875,383.2969 153.875,383.6406 Q153.875,383.9844 153.5313,384.3906 Q153.0313,384.9688 152.2344,385.2969 Q151.1563,385.75 149.8594,385.75 Q148.3438,385.75 147.1406,385.125 Q146.1563,384.625 145.4688,383.5547 Q144.7813,382.4844 144.7813,381.2031 L144.7813,380.0469 Q144.7813,378.7188 145.3984,377.5703 Q146.0156,376.4219 147.1094,375.8047 Q148.2031,375.1875 149.4375,375.1875 Q150.1719,375.1875 150.8203,375.3516 Q151.4688,375.5156 152.0156,375.875 Z " fill="#000000"/><text fill="#000000" font-family="sans-serif" font-size="14" lengthAdjust="spacing" textLength="53" x="169.75" y="385.7285">Mensaje</text><line style="stroke:#181818;stroke-width:0.5;" x1="77.5" x2="282.5" y1="396" y2="396"/><rect fill="none" height="6" style="stroke:#C82930;stroke-width:1.0;" width="6" x="84.5" y="407.3047"/><text fill="#000000" font-family="sans-serif" font-size="14" lengthAdjust="spacing" textLength="54" x="96.5" y="414.5332">id: string</text><rect fill="none" height="6" style="stroke:#C82930;stroke-width:1.0;" width="6" x="84.5" y="424.9141"/><text fill="#000000" font-family="sans-serif" font-size="14" lengthAdjust="spacing" textLength="93" x="96.5" y="432.1426">payload: string</text><rect fill="none" height="6" style="stroke:#C82930;stroke-width:1.0;" width="6" x="84.5" y="442.5234"/><text fill="#000000" font-family="sans-serif" font-size="14" lengthAdjust="spacing" textLength="181" x="96.5" y="449.752">headers: Map&lt;string, string&gt;</text><rect fill="none" height="6" style="stroke:#C82930;stroke-width:1.0;" width="6" x="84.5" y="460.1328"/><text fill="#000000" font-family="sans-serif" font-size="14" lengthAdjust="spacing" textLength="126" x="96.5" y="467.3613">timestamp: datetime</text><rect fill="none" height="6" style="stroke:#C82930;stroke-width:1.0;" width="6" x="84.5" y="477.7422"/><text fill="#000000" font-family="sans-serif" font-size="14" lengthAdjust="spacing" textLength="81" x="96.5" y="484.9707">status: string</text><rect fill="none" height="6" style="stroke:#C82930;stroke-width:1.0;" width="6" x="84.5" y="495.3516"/><text fill="#000000" font-family="sans-serif" font-size="14" lengthAdjust="spacing" textLength="74" x="96.5" y="502.5801">partition: int</text><rect fill="none" height="6" style="stroke:#C82930;stroke-width:1.0;" width="6" x="84.5" y="512.9609"/><text fill="#000000" font-family="sans-serif" font-size="14" lengthAdjust="spacing" textLength="135" x="96.5" y="520.1895">resourceName: string</text><rect fill="none" height="6" style="stroke:#C82930;stroke-width:1.0;" width="6" x="84.5" y="530.5703"/><text fill="#000000" font-family="sans-serif" font-size="14" lengthAdjust="spacing" textLength="131" x="96.5" y="537.7988">resourceType: string</text><line style="stroke:#181818;stroke-width:0.5;" x1="77.5" x2="282.5" y1="544.875" y2="544.875"/></g><!--class LogEvento--><g id="elem_LogEvento"><rect codeLine="32" fill="#F1F1F1" height="136.0469" id="LogEvento" rx="2.5" ry="2.5" style="stroke:#181818;stroke-width:0.5;" width="152" x="389" y="168"/><ellipse cx="427.4" cy="184" fill="#ADD1B2" rx="11" ry="11" style="stroke:#181818;stroke-width:1.0;"/><path d="M430.1656,179.875 Q430.3219,179.6563 430.5094,179.5469 Q430.6969,179.4375 430.9156,179.4375 Q431.2906,179.4375 431.525,179.6953 Q431.7594,179.9531 431.7594,180.5625 L431.7594,182.0156 Q431.7594,182.625 431.525,182.8906 Q431.2906,183.1563 430.9156,183.1563 Q430.5719,183.1563 430.3688,182.9531 Q430.1656,182.7656 430.0563,182.25 Q430.0094,181.8906 429.8219,181.7031 Q429.4938,181.3281 428.8844,181.1094 Q428.275,180.8906 427.65,180.8906 Q426.8844,180.8906 426.2516,181.2188 Q425.6188,181.5469 425.1266,182.2969 Q424.6344,183.0469 424.6344,184.0781 L424.6344,185.1719 Q424.6344,186.4063 425.525,187.2266 Q426.4156,188.0469 428.0094,188.0469 Q428.9469,188.0469 429.6031,187.7969 Q429.9938,187.6406 430.4156,187.2031 Q430.6813,186.9375 430.8297,186.8594 Q430.9781,186.7813 431.1813,186.7813 Q431.5094,186.7813 431.7672,187.0391 Q432.025,187.2969 432.025,187.6406 Q432.025,187.9844 431.6813,188.3906 Q431.1813,188.9688 430.3844,189.2969 Q429.3063,189.75 428.0094,189.75 Q426.4938,189.75 425.2906,189.125 Q424.3063,188.625 423.6188,187.5547 Q422.9313,186.4844 422.9313,185.2031 L422.9313,184.0469 Q422.9313,182.7188 423.5484,181.5703 Q424.1656,180.4219 425.2594,179.8047 Q426.3531,179.1875 427.5875,179.1875 Q428.3219,179.1875 428.9703,179.3516 Q429.6188,179.5156 430.1656,179.875 Z " fill="#000000"/><text fill="#000000" font-family="sans-serif" font-size="14" lengthAdjust="spacing" textLength="68" x="446.6" y="189.7285">LogEvento</text><line style="stroke:#181818;stroke-width:0.5;" x1="390" x2="540" y1="200" y2="200"/><rect fill="none" height="6" style="stroke:#C82930;stroke-width:1.0;" width="6" x="397" y="211.3047"/><text fill="#000000" font-family="sans-serif" font-size="14" lengthAdjust="spacing" textLength="110" x="409" y="218.5332">eventType: string</text><rect fill="none" height="6" style="stroke:#C82930;stroke-width:1.0;" width="6" x="397" y="228.9141"/><text fill="#000000" font-family="sans-serif" font-size="14" lengthAdjust="spacing" textLength="71" x="409" y="236.1426">user: string</text><rect fill="none" height="6" style="stroke:#C82930;stroke-width:1.0;" width="6" x="397" y="246.5234"/><text fill="#000000" font-family="sans-serif" font-size="14" lengthAdjust="spacing" textLength="99" x="409" y="253.752">resource: string</text><rect fill="none" height="6" style="stroke:#C82930;stroke-width:1.0;" width="6" x="397" y="264.1328"/><text fill="#000000" font-family="sans-serif" font-size="14" lengthAdjust="spacing" textLength="126" x="409" y="271.3613">timestamp: datetime</text><rect fill="none" height="6" style="stroke:#C82930;stroke-width:1.0;" width="6" x="397" y="281.7422"/><text fill="#000000" font-family="sans-serif" font-size="14" lengthAdjust="spacing" textLength="75" x="409" y="288.9707">details: json</text><line style="stroke:#181818;stroke-width:0.5;" x1="390" x2="540" y1="296.0469" y2="296.0469"/></g><!--link Usuario to Topico--><g id="link_Usuario_Topico"><path codeLine="40" d="M222.29,108.13 C199.23,129.44 176.5273,150.4286 152.5173,172.6086 " fill="none" id="Usuario-to-Topico" style="stroke:#181818;stroke-width:1.0;"/><polygon fill="#181818" points="148.11,176.68,157.4351,173.5111,151.7827,173.2872,152.0067,167.6348,148.11,176.68" style="stroke:#181818;stroke-width:1.0;"/><text fill="#000000" font-family="sans-serif" font-size="13" lengthAdjust="spacing" textLength="7" x="207.96" y="129.1706">1</text><text fill="#000000" font-family="sans-serif" font-size="13" lengthAdjust="spacing" textLength="20" x="134.5828" y="165.9653">0..*</text></g><!--link Usuario to Cola--><g id="link_Usuario_Cola"><path codeLine="41" d="M276,108.13 C276,129.44 276,148.5 276,170.68 " fill="none" id="Usuario-to-Cola" style="stroke:#181818;stroke-width:1.0;"/><polygon fill="#181818" points="276,176.68,280,167.68,276,171.68,272,167.68,276,176.68" style="stroke:#181818;stroke-width:1.0;"/><text fill="#000000" font-family="sans-serif" font-size="13" lengthAdjust="spacing" textLength="7" x="268.5516" y="129.1706">1</text><text fill="#000000" font-family="sans-serif" font-size="13" lengthAdjust="spacing" textLength="20" x="254.7813" y="165.9653">0..*</text></g><!--link Topico to Mensaje--><g id="link_Topico_Mensaje"><path codeLine="42" d="M110.08,295.22 C119.15,316.28 127.2654,335.0999 137.3154,358.4199 " fill="none" id="Topico-to-Mensaje" style="stroke:#181818;stroke-width:1.0;"/><polygon fill="#181818" points="139.69,363.93,139.8014,354.0818,137.7111,359.3383,132.4547,357.2479,139.69,363.93" style="stroke:#181818;stroke-width:1.0;"/><text fill="#000000" font-family="sans-serif" font-size="13" lengthAdjust="spacing" textLength="7" x="105.7101" y="316.9023">1</text><text fill="#000000" font-family="sans-serif" font-size="13" lengthAdjust="spacing" textLength="20" x="115.6809" y="353.2706">0..*</text></g><!--link Cola to Mensaje--><g id="link_Cola_Mensaje"><path codeLine="43" d="M250.65,295.22 C241.49,316.28 233.2845,335.1085 223.1345,358.4285 " fill="none" id="Cola-to-Mensaje" style="stroke:#181818;stroke-width:1.0;"/><polygon fill="#181818" points="220.74,363.93,227.9994,357.2741,222.7354,359.3454,220.6641,354.0814,220.74,363.93" style="stroke:#181818;stroke-width:1.0;"/><text fill="#000000" font-family="sans-serif" font-size="13" lengthAdjust="spacing" textLength="7" x="240.1339" y="316.9023">1</text><text fill="#000000" font-family="sans-serif" font-size="13" lengthAdjust="spacing" textLength="20" x="203.1896" y="353.2706">0..*</text></g><!--link Usuario to LogEvento--><g id="link_Usuario_LogEvento"><path codeLine="44" d="M329.15,108.13 C349.02,126.69 367.5446,143.9951 388.8246,163.8651 " fill="none" id="Usuario-to-LogEvento" style="stroke:#181818;stroke-width:1.0;"/><polygon fill="#181818" points="393.21,167.96,389.3617,158.8941,389.5555,164.5476,383.9019,164.7413,393.21,167.96" style="stroke:#181818;stroke-width:1.0;"/><text fill="#000000" font-family="sans-serif" font-size="13" lengthAdjust="spacing" textLength="7" x="328.5114" y="129.1706">1</text><text fill="#000000" font-family="sans-serif" font-size="13" lengthAdjust="spacing" textLength="20" x="364.2642" y="157.1549">0..*</text></g><!--SRC=[lPB1QiCm38RlVWgHOrdAUWsZCCPWXtQdxW64BLgNn3QMib76tdrnPhSaMwwxEVylVxyLIRV836_SOxGUFXL03JrJTDXH0opHkkCeXg7kmqVpWdoQ63eI2fb7QS0C1x4TgI-bz0W- -61ruVvYZbTzR4h-8Y_faK9hDN83Eyloy8FPtgAUV8l_4hGdntYcd6NDx3TTMezJxKHeA0wyFOQCkuE2JGKfcWMxC7l9e4dFCtuKAzQx1goJ_5xsVTJqEk-w68TBk1dNDdR- -FnEJifqA7rCIiik_0cTY4iD61AqxT31cRrBqMNHgaq5TRs5wdwzNbLvJPRSD5cLDsbcvLceSVWBtWBrslyt]--></g></svg>