<?xml version="1.0" encoding="us-ascii" standalone="no"?><svg xmlns="http://www.w3.org/2000/svg" xmlns:xlink="http://www.w3.org/1999/xlink" contentStyleType="text/css" height="901px" preserveAspectRatio="none" style="width:1138px;height:901px;background:#FFFFFF;" version="1.1" viewBox="0 0 1138 901" width="1138px" zoomAndPan="magnify"><defs/><g><!--cluster Internet--><g id="cluster_Internet"><polygon fill="none" points="767,16,777,6,899,6,899,131,889,141,767,141,767,16" style="stroke:#181818;stroke-width:1.0;"/><line style="stroke:#181818;stroke-width:1.0;" x1="889" x2="899" y1="16" y2="6"/><line style="stroke:#181818;stroke-width:1.0;" x1="767" x2="889" y1="16" y2="16"/><line style="stroke:#181818;stroke-width:1.0;" x1="889" x2="889" y1="16" y2="141"/><text fill="#000000" font-family="sans-serif" font-size="14" font-weight="bold" lengthAdjust="spacing" textLength="56" x="801" y="33.5332">Internet</text></g><!--cluster AWS VPC--><g id="cluster_AWS VPC"><polygon fill="none" points="16,201,26,191,1071,191,1071,860.08,1061,870.08,16,870.08,16,201" style="stroke:#181818;stroke-width:1.0;"/><line style="stroke:#181818;stroke-width:1.0;" x1="1061" x2="1071" y1="201" y2="191"/><line style="stroke:#181818;stroke-width:1.0;" x1="16" x2="1061" y1="201" y2="201"/><line style="stroke:#181818;stroke-width:1.0;" x1="1061" x2="1061" y1="201" y2="870.08"/><text fill="#000000" font-family="sans-serif" font-size="14" font-weight="bold" lengthAdjust="spacing" textLength="63" x="508" y="218.5332">AWS VPC</text></g><!--cluster Amazon EC2--><g id="cluster_Amazon EC2"><path d="M60.3937,249.6457 C82.9093,213.1939 114.7606,222.932 130.3855,256.5307 C147.8246,225.1033 180.2339,229.0468 197.8171,256.3653 C218.8547,220.3157 246.7597,219.1918 274.5356,248.4495 C292.3428,215.4633 314.7611,219.2314 336.7992,243.8788 C359.8119,204.2728 390.0727,211.5105 413.2756,243.6762 C435.1923,216.5924 467.1123,215.5988 480.5572,252.5741 C494.4438,216.4337 526.7968,212.8487 550.9675,241.3768 C577.6108,207.5427 602.0291,217.2731 620.3747,250.0259 C640.7174,207.6516 669.4641,216.1278 695.1845,244.3254 C719.3066,209.6944 740.6497,211.2868 764.2106,244.8932 C785.7711,219.1386 814.532,218.7679 825.7991,255.1035 C848.0165,214.5459 878.0968,219.6804 900.5521,254.8687 C918.3002,219.5092 938.834,218.4627 963.4434,248.2444 C988.9225,209.0113 1020.1576,220.0061 1039,255 C1047.0063,253.4422 1049.3044,257.0029 1047.6133,264.3645 C1074.7374,284.5755 1073.5106,314.2693 1045.4992,332.7765 C1087.1234,352.8308 1085.9132,384.9522 1048.5832,408.2334 C1087.494,429.5983 1088.4476,450.3398 1053.54,477.0239 C1090.9055,495.3697 1093.5363,525.156 1061.614,551.0583 C1094.7563,579.7763 1086.0357,605.2088 1049.8511,622.5144 C1085.4943,639.2503 1084.8826,674.2682 1055.6735,696.1331 C1088.4213,720.4896 1089.9173,748.1506 1049.6258,766.2031 C1080.408,792.8383 1075.2276,829.5937 1032,838.08 C1037.5232,838.1094 1040.0788,840.9754 1038.2138,846.474 C1019.5977,875.1245 987.7686,870.1708 972.6589,842.4 C954.9172,876.8765 919.0937,885.4624 894.6745,849.8274 C875.1802,884.2536 843.9393,881.8278 825.7678,848.4825 C806.1769,877.9089 783.5578,878.7287 765.1934,847.2624 C742.8772,876.9151 713.0222,877.3189 694.1494,843.4135 C679.8763,875.5734 646.1079,880.7636 624.3793,851.9436 C601.1665,894.2722 563.547,891.1877 545.26,847.4171 C532.6212,884.0116 499.8997,883.9752 478.8773,856.0418 C456.2563,881.3783 432.5094,887.4503 414.3639,851.3427 C390.0144,887.3361 361.574,882.0328 339.8399,848.5378 C321.6698,881.9824 294.7851,881.3194 276.2976,848.8437 C249.5093,879.5333 222.2873,876.9621 203.6635,840.0689 C178.5462,876.5019 150.9617,877.298 125.7269,840.1934 C98.4117,876.7667 65.8401,875.3176 48,831.08 C50.6548,831.9503 51.169,833.2935 49.2823,835.4856 C9.9109,816.3145 17.7925,780.3389 48.7195,760.6392 C12.7304,743.3511 16.9474,720.4673 42.7498,697.3506 C9.1099,677.1296 12.6158,640.7762 45.7435,623.2528 C12.4833,602.7994 9.5194,579.2999 41.1422,554.504 C6.9242,524.0667 12.5198,502.7132 51.1172,482.3411 C10.868,461.2677 12.1352,432.0869 43.4831,404.0337 C10.9295,377.6627 9.9721,348.9484 52.1837,331.5522 C10.9964,305.5902 8.3632,271.0017 55,248 C57.2659,246.2106 59.6343,246.4975 60.3937,249.6457 " fill="none" style="stroke:#181818;stroke-width:1.0;"/><text fill="#000000" font-family="sans-serif" font-size="14" font-weight="bold" lengthAdjust="spacing" textLength="85" x="501" y="267.5332">Amazon EC2</text></g><!--cluster EC2_1--><g id="cluster_EC2_1"><polygon fill="none" points="72,302,82,292,581,292,581,513.22,571,523.22,72,523.22,72,302" style="stroke:#181818;stroke-width:1.0;"/><line style="stroke:#181818;stroke-width:1.0;" x1="571" x2="581" y1="302" y2="292"/><line style="stroke:#181818;stroke-width:1.0;" x1="72" x2="571" y1="302" y2="302"/><line style="stroke:#181818;stroke-width:1.0;" x1="571" x2="571" y1="302" y2="523.22"/><text fill="#000000" font-family="sans-serif" font-size="14" font-weight="bold" lengthAdjust="spacing" textLength="87" x="279" y="319.5332">mom-node-1</text><text fill="#000000" font-family="sans-serif" font-size="14" font-weight="bold" lengthAdjust="spacing" textLength="101" x="272" y="337.1426">(EC2 Instance)</text></g><!--cluster EC2_2--><g id="cluster_EC2_2"><polygon fill="none" points="621,434.36,631,424.36,798,424.36,798,678.08,788,688.08,621,688.08,621,434.36" style="stroke:#181818;stroke-width:1.0;"/><line style="stroke:#181818;stroke-width:1.0;" x1="788" x2="798" y1="434.36" y2="424.36"/><line style="stroke:#181818;stroke-width:1.0;" x1="621" x2="788" y1="434.36" y2="434.36"/><line style="stroke:#181818;stroke-width:1.0;" x1="788" x2="788" y1="434.36" y2="688.08"/><text fill="#000000" font-family="sans-serif" font-size="14" font-weight="bold" lengthAdjust="spacing" textLength="87" x="662" y="451.8932">mom-node-2</text><text fill="#000000" font-family="sans-serif" font-size="14" font-weight="bold" lengthAdjust="spacing" textLength="101" x="655" y="469.5026">(EC2 Instance)</text></g><!--cluster EC2_3--><g id="cluster_EC2_3"><polygon fill="none" points="838,599.22,848,589.22,1015,589.22,1015,804.08,1005,814.08,838,814.08,838,599.22" style="stroke:#181818;stroke-width:1.0;"/><line style="stroke:#181818;stroke-width:1.0;" x1="1005" x2="1015" y1="599.22" y2="589.22"/><line style="stroke:#181818;stroke-width:1.0;" x1="838" x2="1005" y1="599.22" y2="599.22"/><line style="stroke:#181818;stroke-width:1.0;" x1="1005" x2="1005" y1="599.22" y2="814.08"/><text fill="#000000" font-family="sans-serif" font-size="14" font-weight="bold" lengthAdjust="spacing" textLength="87" x="879" y="616.7532">mom-node-3</text><text fill="#000000" font-family="sans-serif" font-size="14" font-weight="bold" lengthAdjust="spacing" textLength="101" x="872" y="634.3626">(EC2 Instance)</text></g><!--entity Cliente--><g id="elem_Cliente"><ellipse cx="833" cy="55.5" fill="#F1F1F1" rx="8" ry="8" style="stroke:#181818;stroke-width:0.5;"/><path d="M833,63.5 L833,90.5 M820,71.5 L846,71.5 M833,90.5 L820,105.5 M833,90.5 L846,105.5 " fill="none" style="stroke:#181818;stroke-width:0.5;"/><text fill="#000000" font-family="sans-serif" font-size="14" lengthAdjust="spacing" textLength="44" x="811" y="121.5332">Cliente</text></g><!--entity API REST Server--><g id="elem_API REST Server"><rect fill="#F1F1F1" height="37.6094" rx="2.5" ry="2.5" style="stroke:#181818;stroke-width:0.5;" width="128" x="429" y="456.72"/><text fill="#000000" font-family="sans-serif" font-size="14" lengthAdjust="spacing" textLength="108" x="439" y="481.2532">API REST Server</text></g><!--entity gRPC Peer Manager--><g id="elem_gRPC Peer Manager"><rect fill="#F1F1F1" height="37.6094" rx="2.5" ry="2.5" style="stroke:#181818;stroke-width:0.5;" width="151" x="242.5" y="456.72"/><text fill="#000000" font-family="sans-serif" font-size="14" lengthAdjust="spacing" textLength="131" x="252.5" y="481.2532">gRPC Peer Manager</text></g><!--entity DB1--><g id="elem_DB1"><path d="M96.5,462.22 C96.5,452.22 152,452.22 152,452.22 C152,452.22 207.5,452.22 207.5,462.22 L207.5,488.8294 C207.5,498.8294 152,498.8294 152,498.8294 C152,498.8294 96.5,498.8294 96.5,488.8294 L96.5,462.22 " fill="#F1F1F1" style="stroke:#181818;stroke-width:0.5;"/><path d="M96.5,462.22 C96.5,472.22 152,472.22 152,472.22 C152,472.22 207.5,472.22 207.5,462.22 " fill="none" style="stroke:#181818;stroke-width:0.5;"/><text fill="#000000" font-family="sans-serif" font-size="14" lengthAdjust="spacing" textLength="91" x="106.5" y="490.7532">Storage (EBS)</text></g><!--entity DB2--><g id="elem_DB2"><path d="M662.5,627.08 C662.5,617.08 718,617.08 718,617.08 C718,617.08 773.5,617.08 773.5,627.08 L773.5,653.6894 C773.5,663.6894 718,663.6894 718,663.6894 C718,663.6894 662.5,663.6894 662.5,653.6894 L662.5,627.08 " fill="#F1F1F1" style="stroke:#181818;stroke-width:0.5;"/><path d="M662.5,627.08 C662.5,637.08 718,637.08 718,637.08 C718,637.08 773.5,637.08 773.5,627.08 " fill="none" style="stroke:#181818;stroke-width:0.5;"/><text fill="#000000" font-family="sans-serif" font-size="14" lengthAdjust="spacing" textLength="91" x="672.5" y="655.6132">Storage (EBS)</text></g><!--entity DB3--><g id="elem_DB3"><path d="M862.5,753.08 C862.5,743.08 918,743.08 918,743.08 C918,743.08 973.5,743.08 973.5,753.08 L973.5,779.6894 C973.5,789.6894 918,789.6894 918,789.6894 C918,789.6894 862.5,789.6894 862.5,779.6894 L862.5,753.08 " fill="#F1F1F1" style="stroke:#181818;stroke-width:0.5;"/><path d="M862.5,753.08 C862.5,763.08 918,763.08 918,763.08 C918,763.08 973.5,763.08 973.5,753.08 " fill="none" style="stroke:#181818;stroke-width:0.5;"/><text fill="#000000" font-family="sans-serif" font-size="14" lengthAdjust="spacing" textLength="91" x="872.5" y="781.6132">Storage (EBS)</text></g><!--link Cliente to EC2_1--><g id="link_Cliente_EC2_1"><path d="M810.98,91.19 C776.44,98.77 709.1,117.76 667,157 C633.745,188 610.455,233.3875 595.3763,271.49 C591.6066,281.0156 588.3501,290.0859 585.5794,298.3623 C584.1941,302.5005 582.9302,306.4402 581.7843,310.1391 C581.6411,310.6014 581.4997,311.06 581.3601,311.5148 C581.2903,311.7422 582.9737,306.2303 582.9048,306.4557 " fill="none" id="Cliente-to-EC2_1" style="stroke:#181818;stroke-width:1.0;"/><polygon fill="#181818" points="581.1522,312.194,587.6067,304.755,582.6127,307.4121,579.9556,302.4181,581.1522,312.194" style="stroke:#181818;stroke-width:1.0;"/><text fill="#000000" font-family="sans-serif" font-size="13" lengthAdjust="spacing" textLength="138" x="668" y="171.4951">REST API Call (HTTPS)</text></g><!--link Cliente to EC2_2--><g id="link_Cliente_EC2_2"><path d="M824.91,125.24 C814.65,173.765 796.38,260.155 780.5725,334.8975 C776.6206,353.5831 772.8227,371.5408 769.3422,387.9968 C767.602,396.2249 765.9412,404.0775 764.3802,411.458 C763.5997,415.1483 762.8442,418.7205 762.1161,422.1626 C762.0251,422.5929 763.1761,417.151 763.086,417.5772 " fill="none" id="Cliente-to-EC2_2" style="stroke:#181818;stroke-width:1.0;"/><polygon fill="#181818" points="761.8444,423.4473,767.6202,415.4698,762.8791,418.5555,759.7933,413.8144,761.8444,423.4473" style="stroke:#181818;stroke-width:1.0;"/><text fill="#000000" font-family="sans-serif" font-size="13" lengthAdjust="spacing" textLength="138" x="812" y="348.8551">REST API Call (HTTPS)</text></g><!--link Cliente to EC2_3--><g id="link_Cliente_EC2_3"><path d="M855.17,96.21 C885.14,110.02 937.34,139.26 959,183 C1029.37,325.07 994.13,390.2 940,539.22 C935.545,551.485 929.2594,563.6956 922.2911,575.1589 C920.549,578.0247 918.7643,580.8438 916.9548,583.6054 C916.0501,584.9862 915.1392,586.3526 914.2243,587.7033 C913.9956,588.0409 913.7666,588.3776 913.5375,588.7133 C913.4229,588.8811 916.7003,584.0996 916.5856,584.2669 " fill="none" id="Cliente-to-EC2_3" style="stroke:#181818;stroke-width:1.0;"/><polygon fill="#181818" points="913.1936,589.2161,921.581,584.0537,916.0203,585.0918,914.9822,579.531,913.1936,589.2161" style="stroke:#181818;stroke-width:1.0;"/><text fill="#000000" font-family="sans-serif" font-size="13" lengthAdjust="spacing" textLength="138" x="992" y="396.8551">REST API Call (HTTPS)</text></g><!--link EC2_1 to EC2_2--><g id="link_EC2_1_EC2_2"><path d="M581.1429,350.3208 C581.446,350.5428 581.7567,350.7704 582.0748,351.0034 C587.1647,354.7317 594.1519,359.8494 602.4038,365.8931 C618.9075,377.9806 640.47,393.7725 662.03,409.5625 C667.42,413.51 672.8098,417.4574 678.1204,421.3467 C679.4481,422.3191 675.9302,419.7426 677.2467,420.7068 " fill="none" id="EC2_1-to-EC2_2" style="stroke:#181818;stroke-width:1.0;"/><polygon fill="#181818" points="682.0873,424.252,677.1898,415.7071,678.0534,421.2977,672.4629,422.1613,682.0873,424.252" style="stroke:#181818;stroke-width:1.0;"/><text fill="#000000" font-family="sans-serif" font-size="13" lengthAdjust="spacing" textLength="66" x="647" y="396.8551">gRPC sync</text></g><!--link EC2_1 to EC2_3--><g id="link_EC2_1_EC2_3"><path d="M581.017,343.9129 C581.1639,343.9068 581.3126,343.9007 581.4632,343.8946 C586.2826,343.7009 592.9873,343.5286 601.1291,343.5684 C617.4125,343.6481 639.4438,344.5763 663.635,347.8775 C712.0175,354.48 769.04,370.575 806,408.36 C842.78,445.965 859.3425,502.565 866.68,550.3525 C868.5144,562.2994 869.7722,573.6955 870.6252,584.1063 C870.7318,585.4076 870.8321,586.6936 870.9264,587.9633 C870.95,588.2807 870.5399,582.6128 870.5628,582.9282 " fill="none" id="EC2_1-to-EC2_3" style="stroke:#181818;stroke-width:1.0;"/><polygon fill="#181818" points="870.996,588.9125,874.3357,579.6472,870.635,583.9256,866.3566,580.2249,870.996,588.9125" style="stroke:#181818;stroke-width:1.0;"/><text fill="#000000" font-family="sans-serif" font-size="13" lengthAdjust="spacing" textLength="66" x="865" y="481.2151">gRPC sync</text></g><!--link EC2_2 to EC2_3--><g id="link_EC2_2_EC2_3"><path d="M798.4246,580.0037 C798.9933,580.4621 799.5631,580.9214 800.1339,581.3815 C801.2754,582.3018 802.4206,583.2253 803.5679,584.1509 C808.1572,587.853 812.781,591.5872 817.3427,595.2744 C821.9043,598.9616 826.4038,602.6017 830.7445,606.1157 C832.9149,607.8727 835.0455,609.5981 837.1244,611.2822 C837.3843,611.4927 837.6434,611.7025 837.9016,611.9117 C837.9339,611.9379 833.304,608.1871 833.3363,608.2133 " fill="none" id="EC2_2-to-EC2_3" style="stroke:#181818;stroke-width:1.0;"/><polygon fill="#181818" points="837.9984,611.9901,833.5231,603.2167,834.1133,608.8427,828.4873,609.4329,837.9984,611.9901" style="stroke:#181818;stroke-width:1.0;"/><text fill="#000000" font-family="sans-serif" font-size="13" lengthAdjust="spacing" textLength="66" x="781" y="561.7151">gRPC sync</text></g><!--link EC2_1 to DB1--><g id="link_EC2_1_DB1"><path d="M572.85,344.36 C566.55,344.2 363.72,339.66 225,408.36 C203.82,418.85 188.3084,432.8816 174.7784,447.6816 " fill="none" id="EC2_1-to-DB1" style="stroke:#181818;stroke-width:1.0;"/><polygon fill="#181818" points="170.73,452.11,179.7548,448.1663,174.1037,448.4197,173.8503,442.7685,170.73,452.11" style="stroke:#181818;stroke-width:1.0;"/></g><!--link EC2_2 to DB2--><g id="link_EC2_2_DB2"><path d="M750.97,476.83 C750.35,479.15 740.33,516.64 734,547.22 C729.12,570.81 725.4784,592.0654 722.4784,610.8054 " fill="none" id="EC2_2-to-DB2" style="stroke:#181818;stroke-width:1.0;"/><polygon fill="#181818" points="721.53,616.73,726.9024,608.4754,722.3204,611.7929,719.0029,607.2109,721.53,616.73" style="stroke:#181818;stroke-width:1.0;"/></g><!--link EC2_3 to DB3--><g id="link_EC2_3_DB3"><path d="M872.03,641.67 C873.04,644.38 894.5133,702.2545 907.5033,737.2745 " fill="none" id="EC2_3-to-DB3" style="stroke:#181818;stroke-width:1.0;"/><polygon fill="#181818" points="909.59,742.9,910.2103,733.0707,907.8511,738.2121,902.7097,735.8529,909.59,742.9" style="stroke:#181818;stroke-width:1.0;"/></g><!--SRC=[nPB1QeD048RlFiNWoHmygBSU2eqDr4D1ij9U2cMgKojTPyFkjYKjVVUksPXAWf1RzY3gV3D-FuvvxtY36dkeLRzHJ6o5tKe2JRL5RYK5ve2ODspKLySjlA8q50Ii6eAmO4kQoORm4u0xM5kb8PUT6qR1xuZTF0fuAFEHggNwQDpR7hyLmofFny9mV4Ul-dYuYvCdZXm11HidLTCY13H3ptCoQTfD7LEuoMK1wvMeG93-91tESUswpA4aqd2FZEqnsQ355pHEHxXOhWxHQYcymUqoER0kvunzEckVNjW-FSC-cxNFBcoVJUpzrQNOhnt4yVL-GQwyoQ2KevGGtLLLAHOdP7escSsIWV_aTEGkejboVLJBJchfJ6tIE2pSFphyG8_xf-mF]--></g></svg>