<?xml version="1.0" encoding="us-ascii" standalone="no"?><svg xmlns="http://www.w3.org/2000/svg" xmlns:xlink="http://www.w3.org/1999/xlink" contentStyleType="text/css" height="532px" preserveAspectRatio="none" style="width:415px;height:532px;background:#FFFFFF;" version="1.1" viewBox="0 0 415 532" width="415px" zoomAndPan="magnify"><defs/><g><ellipse cx="204.75" cy="20" fill="#222222" rx="10" ry="10" style="stroke:#222222;stroke-width:1.0;"/><rect fill="#F1F1F1" height="35.0938" rx="12.5" ry="12.5" style="stroke:#181818;stroke-width:0.5;" width="288" x="60.75" y="50"/><text fill="#000000" font-family="sans-serif" font-size="12" lengthAdjust="spacing" textLength="268" x="70.75" y="72.457">Cliente realiza POST a /topics/{name}/messages</text><rect fill="#F1F1F1" height="35.0938" rx="12.5" ry="12.5" style="stroke:#181818;stroke-width:0.5;" width="135" x="137.25" y="105.0938"/><text fill="#000000" font-family="sans-serif" font-size="12" lengthAdjust="spacing" textLength="115" x="147.25" y="127.5508">API REST valida JWT</text><rect fill="#F1F1F1" height="35.0938" rx="12.5" ry="12.5" style="stroke:#181818;stroke-width:0.5;" width="217" x="96.25" y="160.1875"/><text fill="#000000" font-family="sans-serif" font-size="12" lengthAdjust="spacing" textLength="197" x="106.25" y="182.6445">Verifica si el nodo gestiona el t&#243;pico</text><polygon fill="#F1F1F1" points="140.75,215.2813,268.75,215.2813,280.75,227.2813,268.75,239.2813,140.75,239.2813,128.75,227.2813,140.75,215.2813" style="stroke:#181818;stroke-width:0.5;"/><text fill="#000000" font-family="sans-serif" font-size="11" lengthAdjust="spacing" textLength="128" x="140.75" y="231.7822">T&#243;pico est&#225; en este nodo?</text><text fill="#000000" font-family="sans-serif" font-size="11" lengthAdjust="spacing" textLength="8" x="120.75" y="224.8643">s&#237;</text><text fill="#000000" font-family="sans-serif" font-size="11" lengthAdjust="spacing" textLength="12" x="280.75" y="224.8643">no</text><rect fill="#F1F1F1" height="35.0938" rx="12.5" ry="12.5" style="stroke:#181818;stroke-width:0.5;" width="181" x="11" y="249.2813"/><text fill="#000000" font-family="sans-serif" font-size="12" lengthAdjust="spacing" textLength="161" x="21" y="271.7383">Guardar mensaje localmente</text><rect fill="#F1F1F1" height="35.0938" rx="12.5" ry="12.5" style="stroke:#181818;stroke-width:0.5;" width="192" x="212" y="249.2813"/><text fill="#000000" font-family="sans-serif" font-size="12" lengthAdjust="spacing" textLength="172" x="222" y="271.7383">Redirigir v&#237;a gRPC al nodo l&#237;der</text><polygon fill="#F1F1F1" points="204.75,290.375,216.75,302.375,204.75,314.375,192.75,302.375,204.75,290.375" style="stroke:#181818;stroke-width:0.5;"/><rect fill="#F1F1F1" height="35.0938" rx="12.5" ry="12.5" style="stroke:#181818;stroke-width:0.5;" width="232" x="88.75" y="334.375"/><text fill="#000000" font-family="sans-serif" font-size="12" lengthAdjust="spacing" textLength="212" x="98.75" y="356.832">Mensaje replicado a r&#233;plicas v&#237;a gRPC</text><rect fill="#F1F1F1" height="35.0938" rx="12.5" ry="12.5" style="stroke:#181818;stroke-width:0.5;" width="242" x="83.75" y="389.4688"/><text fill="#000000" font-family="sans-serif" font-size="12" lengthAdjust="spacing" textLength="222" x="93.75" y="411.9258">Confirmar almacenamiento y replicaci&#243;n</text><rect fill="#F1F1F1" height="35.0938" rx="12.5" ry="12.5" style="stroke:#181818;stroke-width:0.5;" width="150" x="129.75" y="444.5625"/><text fill="#000000" font-family="sans-serif" font-size="12" lengthAdjust="spacing" textLength="130" x="139.75" y="467.0195">Enviar 200 OK al cliente</text><ellipse cx="204.75" cy="510.6563" fill="none" rx="11" ry="11" style="stroke:#222222;stroke-width:1.0;"/><ellipse cx="204.75" cy="510.6563" fill="#222222" rx="6" ry="6" style="stroke:#222222;stroke-width:1.0;"/><line style="stroke:#181818;stroke-width:1.0;" x1="204.75" x2="204.75" y1="30" y2="50"/><polygon fill="#181818" points="200.75,40,204.75,50,208.75,40,204.75,44" style="stroke:#181818;stroke-width:1.0;"/><line style="stroke:#181818;stroke-width:1.0;" x1="204.75" x2="204.75" y1="85.0938" y2="105.0938"/><polygon fill="#181818" points="200.75,95.0938,204.75,105.0938,208.75,95.0938,204.75,99.0938" style="stroke:#181818;stroke-width:1.0;"/><line style="stroke:#181818;stroke-width:1.0;" x1="204.75" x2="204.75" y1="140.1875" y2="160.1875"/><polygon fill="#181818" points="200.75,150.1875,204.75,160.1875,208.75,150.1875,204.75,154.1875" style="stroke:#181818;stroke-width:1.0;"/><line style="stroke:#181818;stroke-width:1.0;" x1="128.75" x2="101.5" y1="227.2813" y2="227.2813"/><line style="stroke:#181818;stroke-width:1.0;" x1="101.5" x2="101.5" y1="227.2813" y2="249.2813"/><polygon fill="#181818" points="97.5,239.2813,101.5,249.2813,105.5,239.2813,101.5,243.2813" style="stroke:#181818;stroke-width:1.0;"/><line style="stroke:#181818;stroke-width:1.0;" x1="280.75" x2="308" y1="227.2813" y2="227.2813"/><line style="stroke:#181818;stroke-width:1.0;" x1="308" x2="308" y1="227.2813" y2="249.2813"/><polygon fill="#181818" points="304,239.2813,308,249.2813,312,239.2813,308,243.2813" style="stroke:#181818;stroke-width:1.0;"/><line style="stroke:#181818;stroke-width:1.0;" x1="101.5" x2="101.5" y1="284.375" y2="302.375"/><line style="stroke:#181818;stroke-width:1.0;" x1="101.5" x2="192.75" y1="302.375" y2="302.375"/><polygon fill="#181818" points="182.75,298.375,192.75,302.375,182.75,306.375,186.75,302.375" style="stroke:#181818;stroke-width:1.0;"/><line style="stroke:#181818;stroke-width:1.0;" x1="308" x2="308" y1="284.375" y2="302.375"/><line style="stroke:#181818;stroke-width:1.0;" x1="308" x2="216.75" y1="302.375" y2="302.375"/><polygon fill="#181818" points="226.75,298.375,216.75,302.375,226.75,306.375,222.75,302.375" style="stroke:#181818;stroke-width:1.0;"/><line style="stroke:#181818;stroke-width:1.0;" x1="204.75" x2="204.75" y1="195.2813" y2="215.2813"/><polygon fill="#181818" points="200.75,205.2813,204.75,215.2813,208.75,205.2813,204.75,209.2813" style="stroke:#181818;stroke-width:1.0;"/><line style="stroke:#181818;stroke-width:1.0;" x1="204.75" x2="204.75" y1="314.375" y2="334.375"/><polygon fill="#181818" points="200.75,324.375,204.75,334.375,208.75,324.375,204.75,328.375" style="stroke:#181818;stroke-width:1.0;"/><line style="stroke:#181818;stroke-width:1.0;" x1="204.75" x2="204.75" y1="369.4688" y2="389.4688"/><polygon fill="#181818" points="200.75,379.4688,204.75,389.4688,208.75,379.4688,204.75,383.4688" style="stroke:#181818;stroke-width:1.0;"/><line style="stroke:#181818;stroke-width:1.0;" x1="204.75" x2="204.75" y1="424.5625" y2="444.5625"/><polygon fill="#181818" points="200.75,434.5625,204.75,444.5625,208.75,434.5625,204.75,438.5625" style="stroke:#181818;stroke-width:1.0;"/><line style="stroke:#181818;stroke-width:1.0;" x1="204.75" x2="204.75" y1="479.6563" y2="499.6563"/><polygon fill="#181818" points="200.75,489.6563,204.75,499.6563,208.75,489.6563,204.75,493.6563" style="stroke:#181818;stroke-width:1.0;"/><!--SRC=[HL0nJiD04Epl5LCwLI9Akq38YX0Wb2X4KA_ijRFeV1VT7P40yHXAYbHvmdsCjHD4TpixipCtCL58fgoji4kCm6JbWx1UFMr1c2U_boREFnqD_3KVE4RgELQcl5dVORDKqa45BU7-PQleCmVff2540LiutteeFubtD08fd_IUhunqABRd0RhFts0tFdZINC-GTWeKCHzd1YXltoYq532mY_JAiBuXEuo9AyCsCWhd9-A6MmdIIy0X7mdzPbs3Ba5iFhOSLE1QwKpvUBaLU6yriX888VzCG_oNwwzgxpe9W_ghAJMiPOnjURp_YHl99wVCfJk8qguM2wmUHkFct6jbeZRv2m00]--></g></svg>