<?xml version="1.0" encoding="us-ascii" standalone="no"?><svg xmlns="http://www.w3.org/2000/svg" xmlns:xlink="http://www.w3.org/1999/xlink" contentStyleType="text/css" height="1013px" preserveAspectRatio="none" style="width:1063px;height:1013px;background:#FFFFFF;" version="1.1" viewBox="0 0 1063 1013" width="1063px" zoomAndPan="magnify"><defs/><g><!--cluster API REST (Go)--><g id="cluster_API REST (Go)"><rect fill="#FFD700" height="118" rx="2.5" ry="2.5" style="stroke:#181818;stroke-width:1.0;" width="674" x="7" y="147.5"/><text fill="#000000" font-family="sans-serif" font-size="14" font-style="italic" lengthAdjust="spacing" textLength="32" x="328" y="164.0332">&#171;go&#187;</text><text fill="#000000" font-family="sans-serif" font-size="14" font-weight="bold" lengthAdjust="spacing" textLength="96" x="296" y="181.6426">API REST (Go)</text></g><!--cluster Cliente gRPC (Go)--><g id="cluster_Cliente gRPC (Go)"><rect fill="#FFD700" height="134" rx="2.5" ry="2.5" style="stroke:#181818;stroke-width:1.0;" width="305" x="599" y="306.5"/><text fill="#000000" font-family="sans-serif" font-size="14" font-style="italic" lengthAdjust="spacing" textLength="32" x="735.5" y="323.0332">&#171;go&#187;</text><text fill="#000000" font-family="sans-serif" font-size="14" font-weight="bold" lengthAdjust="spacing" textLength="126" x="688.5" y="340.6426">Cliente gRPC (Go)</text></g><!--cluster Nodo MOM (C++)--><g id="cluster_Nodo MOM (C++)"><rect fill="#87CEFA" height="359" rx="2.5" ry="2.5" style="stroke:#181818;stroke-width:1.0;" width="610" x="304" y="489.5"/><text fill="#000000" font-family="sans-serif" font-size="14" font-style="italic" lengthAdjust="spacing" textLength="39" x="589.5" y="506.0332">&#171;cpp&#187;</text><text fill="#000000" font-family="sans-serif" font-size="14" font-weight="bold" lengthAdjust="spacing" textLength="118" x="550" y="523.6426">Nodo MOM (C++)</text></g><!--cluster Red MOM--><g id="cluster_Red MOM"><rect fill="#D3D3D3" height="118" rx="2.5" ry="2.5" style="stroke:#181818;stroke-width:1.0;" width="288" x="327" y="889.5"/><text fill="#000000" font-family="sans-serif" font-size="14" font-style="italic" lengthAdjust="spacing" textLength="44" x="449" y="906.0332">&#171;infra&#187;</text><text fill="#000000" font-family="sans-serif" font-size="14" font-weight="bold" lengthAdjust="spacing" textLength="69" x="436.5" y="923.6426">Red MOM</text></g><!--entity Login / JWT--><g id="elem_Login / JWT"><rect fill="#F1F1F1" height="47.6094" rx="2.5" ry="2.5" style="stroke:#181818;stroke-width:0.5;" width="115" x="549.5" y="201.5"/><rect fill="#F1F1F1" height="10" style="stroke:#181818;stroke-width:0.5;" width="15" x="644.5" y="206.5"/><rect fill="#F1F1F1" height="2" style="stroke:#181818;stroke-width:0.5;" width="4" x="642.5" y="208.5"/><rect fill="#F1F1F1" height="2" style="stroke:#181818;stroke-width:0.5;" width="4" x="642.5" y="212.5"/><text fill="#000000" font-family="sans-serif" font-size="14" lengthAdjust="spacing" textLength="75" x="564.5" y="236.0332">Login / JWT</text></g><!--entity Gesti?n de T?picos y Colas--><g id="elem_Gesti&#243;n de T&#243;picos y Colas"><rect fill="#F1F1F1" height="47.6094" rx="2.5" ry="2.5" style="stroke:#181818;stroke-width:0.5;" width="214" x="300" y="201.5"/><rect fill="#F1F1F1" height="10" style="stroke:#181818;stroke-width:0.5;" width="15" x="494" y="206.5"/><rect fill="#F1F1F1" height="2" style="stroke:#181818;stroke-width:0.5;" width="4" x="492" y="208.5"/><rect fill="#F1F1F1" height="2" style="stroke:#181818;stroke-width:0.5;" width="4" x="492" y="212.5"/><text fill="#000000" font-family="sans-serif" font-size="14" lengthAdjust="spacing" textLength="174" x="315" y="236.0332">Gesti&#243;n de T&#243;picos y Colas</text></g><!--entity Recepci?n y Env?o de Mensajes--><g id="elem_Recepci&#243;n y Env&#237;o de Mensajes"><rect fill="#F1F1F1" height="47.6094" rx="2.5" ry="2.5" style="stroke:#181818;stroke-width:0.5;" width="241" x="23.5" y="201.5"/><rect fill="#F1F1F1" height="10" style="stroke:#181818;stroke-width:0.5;" width="15" x="244.5" y="206.5"/><rect fill="#F1F1F1" height="2" style="stroke:#181818;stroke-width:0.5;" width="4" x="242.5" y="208.5"/><rect fill="#F1F1F1" height="2" style="stroke:#181818;stroke-width:0.5;" width="4" x="242.5" y="212.5"/><text fill="#000000" font-family="sans-serif" font-size="14" lengthAdjust="spacing" textLength="201" x="38.5" y="236.0332">Recepci&#243;n y Env&#237;o de Mensajes</text></g><!--entity Canal gRPC hacia Nodos MOM--><g id="elem_Canal gRPC hacia Nodos MOM"><rect fill="#F1F1F1" height="47.6094" rx="2.5" ry="2.5" style="stroke:#181818;stroke-width:0.5;" width="237" x="642.5" y="368.5"/><rect fill="#F1F1F1" height="10" style="stroke:#181818;stroke-width:0.5;" width="15" x="859.5" y="373.5"/><rect fill="#F1F1F1" height="2" style="stroke:#181818;stroke-width:0.5;" width="4" x="857.5" y="375.5"/><rect fill="#F1F1F1" height="2" style="stroke:#181818;stroke-width:0.5;" width="4" x="857.5" y="379.5"/><text fill="#000000" font-family="sans-serif" font-size="14" lengthAdjust="spacing" textLength="197" x="657.5" y="403.0332">Canal gRPC hacia Nodos MOM</text></g><!--entity Gestor de Recursos--><g id="elem_Gestor de Recursos"><rect fill="#F1F1F1" height="47.6094" rx="2.5" ry="2.5" style="stroke:#181818;stroke-width:0.5;" width="167" x="703.5" y="551.5"/><rect fill="#F1F1F1" height="10" style="stroke:#181818;stroke-width:0.5;" width="15" x="850.5" y="556.5"/><rect fill="#F1F1F1" height="2" style="stroke:#181818;stroke-width:0.5;" width="4" x="848.5" y="558.5"/><rect fill="#F1F1F1" height="2" style="stroke:#181818;stroke-width:0.5;" width="4" x="848.5" y="562.5"/><text fill="#000000" font-family="sans-serif" font-size="14" lengthAdjust="spacing" textLength="127" x="718.5" y="586.0332">Gestor de Recursos</text></g><!--entity Broker de Mensajes--><g id="elem_Broker de Mensajes"><rect fill="#F1F1F1" height="47.6094" rx="2.5" ry="2.5" style="stroke:#181818;stroke-width:0.5;" width="166" x="524" y="664"/><rect fill="#F1F1F1" height="10" style="stroke:#181818;stroke-width:0.5;" width="15" x="670" y="669"/><rect fill="#F1F1F1" height="2" style="stroke:#181818;stroke-width:0.5;" width="4" x="668" y="671"/><rect fill="#F1F1F1" height="2" style="stroke:#181818;stroke-width:0.5;" width="4" x="668" y="675"/><text fill="#000000" font-family="sans-serif" font-size="14" lengthAdjust="spacing" textLength="126" x="539" y="698.5332">Broker de Mensajes</text></g><!--entity Replicaci?n y Particionamiento--><g id="elem_Replicaci&#243;n y Particionamiento"><rect fill="#F1F1F1" height="47.6094" rx="2.5" ry="2.5" style="stroke:#181818;stroke-width:0.5;" width="233" x="354.5" y="776.5"/><rect fill="#F1F1F1" height="10" style="stroke:#181818;stroke-width:0.5;" width="15" x="567.5" y="781.5"/><rect fill="#F1F1F1" height="2" style="stroke:#181818;stroke-width:0.5;" width="4" x="565.5" y="783.5"/><rect fill="#F1F1F1" height="2" style="stroke:#181818;stroke-width:0.5;" width="4" x="565.5" y="787.5"/><text fill="#000000" font-family="sans-serif" font-size="14" lengthAdjust="spacing" textLength="193" x="369.5" y="811.0332">Replicaci&#243;n y Particionamiento</text></g><!--entity gRPC Server--><g id="elem_gRPC Server"><rect fill="#F1F1F1" height="47.6094" rx="2.5" ry="2.5" style="stroke:#181818;stroke-width:0.5;" width="123" x="545.5" y="551.5"/><rect fill="#F1F1F1" height="10" style="stroke:#181818;stroke-width:0.5;" width="15" x="648.5" y="556.5"/><rect fill="#F1F1F1" height="2" style="stroke:#181818;stroke-width:0.5;" width="4" x="646.5" y="558.5"/><rect fill="#F1F1F1" height="2" style="stroke:#181818;stroke-width:0.5;" width="4" x="646.5" y="562.5"/><text fill="#000000" font-family="sans-serif" font-size="14" lengthAdjust="spacing" textLength="83" x="560.5" y="586.0332">gRPC Server</text></g><!--entity Persistencia (SQLite / JSON)--><g id="elem_Persistencia (SQLite / JSON)"><rect fill="#F1F1F1" height="47.6094" rx="2.5" ry="2.5" style="stroke:#181818;stroke-width:0.5;" width="221" x="622.5" y="776.5"/><rect fill="#F1F1F1" height="10" style="stroke:#181818;stroke-width:0.5;" width="15" x="823.5" y="781.5"/><rect fill="#F1F1F1" height="2" style="stroke:#181818;stroke-width:0.5;" width="4" x="821.5" y="783.5"/><rect fill="#F1F1F1" height="2" style="stroke:#181818;stroke-width:0.5;" width="4" x="821.5" y="787.5"/><text fill="#000000" font-family="sans-serif" font-size="14" lengthAdjust="spacing" textLength="181" x="637.5" y="811.0332">Persistencia (SQLite / JSON)</text></g><!--entity Heartbeat & Monitoreo--><g id="elem_Heartbeat &amp; Monitoreo"><rect fill="#F1F1F1" height="47.6094" rx="2.5" ry="2.5" style="stroke:#181818;stroke-width:0.5;" width="182" x="328" y="551.5"/><rect fill="#F1F1F1" height="10" style="stroke:#181818;stroke-width:0.5;" width="15" x="490" y="556.5"/><rect fill="#F1F1F1" height="2" style="stroke:#181818;stroke-width:0.5;" width="4" x="488" y="558.5"/><rect fill="#F1F1F1" height="2" style="stroke:#181818;stroke-width:0.5;" width="4" x="488" y="562.5"/><text fill="#000000" font-family="sans-serif" font-size="14" lengthAdjust="spacing" textLength="142" x="343" y="586.0332">Heartbeat &amp; Monitoreo</text></g><!--entity Nodos MOM adicionales (r?plicas)--><g id="elem_Nodos MOM adicionales (r&#233;plicas)"><rect fill="#F1F1F1" height="47.6094" rx="2.5" ry="2.5" style="stroke:#181818;stroke-width:0.5;" width="255" x="343.5" y="943.5"/><rect fill="#F1F1F1" height="10" style="stroke:#181818;stroke-width:0.5;" width="15" x="578.5" y="948.5"/><rect fill="#F1F1F1" height="2" style="stroke:#181818;stroke-width:0.5;" width="4" x="576.5" y="950.5"/><rect fill="#F1F1F1" height="2" style="stroke:#181818;stroke-width:0.5;" width="4" x="576.5" y="954.5"/><text fill="#000000" font-family="sans-serif" font-size="14" lengthAdjust="spacing" textLength="215" x="358.5" y="978.0332">Nodos MOM adicionales (r&#233;plicas)</text></g><!--entity Cliente--><g id="elem_Cliente"><ellipse cx="607" cy="14" fill="#F1F1F1" rx="8" ry="8" style="stroke:#181818;stroke-width:0.5;"/><path d="M607,22 L607,49 M594,30 L620,30 M607,49 L594,64 M607,49 L620,64 " fill="none" style="stroke:#181818;stroke-width:0.5;"/><text fill="#000000" font-family="sans-serif" font-size="14" lengthAdjust="spacing" textLength="44" x="585" y="80.0332">Cliente</text></g><!--entity Logs / Auditor?a--><g id="elem_Logs / Auditor&#237;a"><rect fill="#D3D3D3" height="55.2188" rx="2.5" ry="2.5" style="stroke:#181818;stroke-width:0.5;" width="119" x="938.5" y="660.5"/><text fill="#000000" font-family="sans-serif" font-size="14" font-style="italic" lengthAdjust="spacing" textLength="44" x="976" y="685.0332">&#171;infra&#187;</text><text fill="#000000" font-family="sans-serif" font-size="14" lengthAdjust="spacing" textLength="99" x="948.5" y="702.6426">Logs / Auditor&#237;a</text></g><!--link Cliente to Login / JWT--><g id="link_Cliente_Login / JWT"><path d="M607,83.9 C607,119.65 607,165.76 607,195.47 " fill="none" id="Cliente-to-Login / JWT" style="stroke:#181818;stroke-width:1.0;"/><polygon fill="#181818" points="607,201.47,611,192.47,607,196.47,603,192.47,607,201.47" style="stroke:#181818;stroke-width:1.0;"/><text fill="#000000" font-family="sans-serif" font-size="13" lengthAdjust="spacing" textLength="70" x="608" y="127.9951">HTTP/REST</text></g><!--link Login / JWT to Cliente gRPC (Go)--><g id="link_Login / JWT_Cliente gRPC (Go)"><path d="M607,249.79 C607,260.9825 607,275.2488 607,290.398 C607,294.1853 607,298.0278 607,301.8912 C607,302.8571 607,303.8242 607,304.7922 C607,305.2762 607,299.7603 607,300.2446 " fill="none" id="Login / JWT-to-Cliente gRPC (Go)" style="stroke:#181818;stroke-width:1.0;"/><polygon fill="#181818" points="607,306.2446,611,297.2446,607,301.2446,603,297.2446,607,306.2446" style="stroke:#181818;stroke-width:1.0;"/></g><!--link Cliente gRPC (Go) to gRPC Server--><g id="link_Cliente gRPC (Go)_gRPC Server"><path d="M607,441.0712 C607,442.0296 607,442.9963 607,443.9707 C607,447.8685 607,451.8903 607,455.9975 C607,488.855 607,521.175 607,545.14 " fill="none" id="Cliente gRPC (Go)-to-gRPC Server" style="stroke:#181818;stroke-width:1.0;"/><polygon fill="#181818" points="607,551.14,611,542.14,607,546.14,603,542.14,607,551.14" style="stroke:#181818;stroke-width:1.0;"/></g><!--link gRPC Server to Broker de Mensajes--><g id="link_gRPC Server_Broker de Mensajes"><path d="M607,599.66 C607,618.52 607,639.02 607,657.87 " fill="none" id="gRPC Server-to-Broker de Mensajes" style="stroke:#181818;stroke-width:1.0;"/><polygon fill="#181818" points="607,663.87,611,654.87,607,658.87,603,654.87,607,663.87" style="stroke:#181818;stroke-width:1.0;"/></g><!--link Broker de Mensajes to Persistencia (SQLite / JSON)--><g id="link_Broker de Mensajes_Persistencia (SQLite / JSON)"><path d="M633.41,712.16 C654.92,731.02 680.6194,753.5635 702.1094,772.4135 " fill="none" id="Broker de Mensajes-to-Persistencia (SQLite / JSON)" style="stroke:#181818;stroke-width:1.0;"/><polygon fill="#181818" points="706.62,776.37,702.4917,767.4281,702.8611,773.0729,697.2163,773.4423,706.62,776.37" style="stroke:#181818;stroke-width:1.0;"/></g><!--link Broker de Mensajes to Replicaci?n y Particionamiento--><g id="link_Broker de Mensajes_Replicaci&#243;n y Particionamiento"><path d="M578.49,712.16 C555.28,731.02 527.3267,753.7364 504.1267,772.5864 " fill="none" id="Broker de Mensajes-to-Replicaci&#243;n y Particionamiento" style="stroke:#181818;stroke-width:1.0;"/><polygon fill="#181818" points="499.47,776.37,508.9774,773.7991,503.3506,773.217,503.9327,767.5902,499.47,776.37" style="stroke:#181818;stroke-width:1.0;"/></g><!--link Replicaci?n y Particionamiento to Nodos MOM adicionales (r?plicas)--><g id="link_Replicaci&#243;n y Particionamiento_Nodos MOM adicionales (r&#233;plicas)"><path d="M471,824.79 C471,856.24 471,905.94 471,937.33 " fill="none" id="Replicaci&#243;n y Particionamiento-to-Nodos MOM adicionales (r&#233;plicas)" style="stroke:#181818;stroke-width:1.0;"/><polygon fill="#181818" points="471,943.33,475,934.33,471,938.33,467,934.33,471,943.33" style="stroke:#181818;stroke-width:1.0;"/></g><!--link Nodo MOM (C++) to Logs / Auditor?a--><g id="link_Nodo MOM (C++)_Logs / Auditor&#237;a"><path d="M914.0288,586.1405 C918.5825,591.6103 924.755,599.0244 931.7,607.3662 C945.59,624.05 958.731,639.8339 972.031,655.8089 " fill="none" id="Nodo MOM (C++)-to-Logs / Auditor&#237;a" style="stroke:#181818;stroke-width:1.0;"/><polygon fill="#181818" points="975.87,660.42,973.1856,650.944,972.6709,656.5774,967.0375,656.0627,975.87,660.42" style="stroke:#181818;stroke-width:1.0;"/></g><!--SRC=[ZP9DJiCm48NtFiM81Mg547k4Aj485L0BeOd40dKnE4Cm3Px8Jf4gn85OiE88kHYsGu2KyBEqvtdcU_DibqgNQF0U3CaATLuGF0g0CSfbRdYbiuWBDWS7EOz6CE4YwolAidJLgSflgsIv7XShwbCfVMEmrKqChiMJ42WhDX0LYdH5GdnIR1t69p0_Ib8OJ7Yu1Uy87kvgohdIi0Udb-d2doTaArM_QiW8qlgrL98jhC7DHHi4Sv9KoY1Pmv5-g5_OQsUaBTwHqpnrHh_ZG3wFevxn4Meick8jIeLmnfaRE3kVRJRo1NyFWsXd9tHfLlNOKZllZiFXhOpbXdLiU4ccYnSib8MIs9g8qLHAAjPuxravQ09IGkQ1J3Z7PAoo5MaFEKWkfigPScjBpi-6GN1ChiqrOGNRC6Ej70_nfeavPTw3fsyZ3FmVhW6p1gKW2mDJFmTIEzniv6ApRlpXAlE3wXVyqbA8TkcxkwDkmh0FnsaQx_dF8BgLeFsMraBqt3NQpeOwfwRUj_o-oqRz-tv_VlTdbdygcZx_IE2g-mKN7-lj9h5u0m00]--></g></svg>