<?xml version="1.0" encoding="us-ascii" standalone="no"?><svg xmlns="http://www.w3.org/2000/svg" xmlns:xlink="http://www.w3.org/1999/xlink" contentStyleType="text/css" height="455px" preserveAspectRatio="none" style="width:1417px;height:455px;background:#FFFFFF;" version="1.1" viewBox="0 0 1417 455" width="1417px" zoomAndPan="magnify"><defs/><g><!--cluster Cl?ster Middleware MOM--><g id="cluster_Cl&#250;ster Middleware MOM"><path d="M211.5,6 L390.5,6 A3.75,3.75 0 0 1 393,8.5 L400,29.6094 L1407.5,29.6094 A2.5,2.5 0 0 1 1410,32.1094 L1410,445.5 A2.5,2.5 0 0 1 1407.5,448 L211.5,448 A2.5,2.5 0 0 1 209,445.5 L209,8.5 A2.5,2.5 0 0 1 211.5,6 " fill="none" style="stroke:#000000;stroke-width:1.5;"/><line style="stroke:#000000;stroke-width:1.5;" x1="209" x2="400" y1="29.6094" y2="29.6094"/><text fill="#000000" font-family="sans-serif" font-size="14" font-weight="bold" lengthAdjust="spacing" textLength="178" x="213" y="22.5332">Cl&#250;ster Middleware MOM</text></g><!--cluster NodeA--><g id="cluster_NodeA"><rect fill="none" height="224" rx="2.5" ry="2.5" style="stroke:#181818;stroke-width:1.0;" width="1137" x="241" y="192"/><text fill="#000000" font-family="sans-serif" font-size="14" font-weight="bold" lengthAdjust="spacing" textLength="91" x="764" y="208.5332">Nodo MOM A</text></g><!--entity API REST Server--><g id="elem_API REST Server"><rect fill="#F1F1F1" height="37.6094" rx="2.5" ry="2.5" style="stroke:#181818;stroke-width:0.5;" width="128" x="265" y="262"/><text fill="#000000" font-family="sans-serif" font-size="14" lengthAdjust="spacing" textLength="108" x="275" y="286.5332">API REST Server</text></g><!--entity Gestor de Recursos--><g id="elem_Gestor de Recursos"><rect fill="#F1F1F1" height="37.6094" rx="2.5" ry="2.5" style="stroke:#181818;stroke-width:0.5;" width="147" x="523" y="262"/><text fill="#000000" font-family="sans-serif" font-size="14" lengthAdjust="spacing" textLength="127" x="533" y="286.5332">Gestor de Recursos</text></g><!--entity Broker de Mensajes--><g id="elem_Broker de Mensajes"><rect fill="#F1F1F1" height="37.6094" rx="2.5" ry="2.5" style="stroke:#181818;stroke-width:0.5;" width="146" x="800" y="281"/><text fill="#000000" font-family="sans-serif" font-size="14" lengthAdjust="spacing" textLength="126" x="810" y="305.5332">Broker de Mensajes</text></g><!--entity gRPC Peer Manager--><g id="elem_gRPC Peer Manager"><rect fill="#F1F1F1" height="37.6094" rx="2.5" ry="2.5" style="stroke:#181818;stroke-width:0.5;" width="151" x="1203" y="299"/><text fill="#000000" font-family="sans-serif" font-size="14" lengthAdjust="spacing" textLength="131" x="1213" y="323.5332">gRPC Peer Manager</text></g><!--entity Replicador--><g id="elem_Replicador"><rect fill="#F1F1F1" height="37.6094" rx="2.5" ry="2.5" style="stroke:#181818;stroke-width:0.5;" width="88" x="1030.5" y="354"/><text fill="#000000" font-family="sans-serif" font-size="14" lengthAdjust="spacing" textLength="68" x="1040.5" y="378.5332">Replicador</text></g><!--entity Persistencia Local--><g id="elem_Persistencia Local"><rect fill="#F1F1F1" height="37.6094" rx="2.5" ry="2.5" style="stroke:#181818;stroke-width:0.5;" width="135" x="1007" y="281"/><text fill="#000000" font-family="sans-serif" font-size="14" lengthAdjust="spacing" textLength="115" x="1017" y="305.5332">Persistencia Local</text></g><!--entity NodeB--><g id="elem_NodeB"><rect fill="#F1F1F1" height="37.6094" rx="2.5" ry="2.5" style="stroke:#181818;stroke-width:0.5;" width="103" x="545" y="130"/><text fill="#000000" font-family="sans-serif" font-size="14" lengthAdjust="spacing" textLength="83" x="555" y="154.5332">Nodo MOM B</text></g><!--entity NodeC--><g id="elem_NodeC"><rect fill="#F1F1F1" height="37.6094" rx="2.5" ry="2.5" style="stroke:#181818;stroke-width:0.5;" width="104" x="821" y="66"/><text fill="#000000" font-family="sans-serif" font-size="14" lengthAdjust="spacing" textLength="84" x="831" y="90.5332">Nodo MOM C</text></g><!--entity Cliente--><g id="elem_Cliente"><ellipse cx="28" cy="250.5" fill="#F1F1F1" rx="8" ry="8" style="stroke:#181818;stroke-width:0.5;"/><path d="M28,258.5 L28,285.5 M15,266.5 L41,266.5 M28,285.5 L15,300.5 M28,285.5 L41,300.5 " fill="none" style="stroke:#181818;stroke-width:0.5;"/><text fill="#000000" font-family="sans-serif" font-size="14" lengthAdjust="spacing" textLength="44" x="6" y="316.5332">Cliente</text></g><!--link Cliente to API REST Server--><g id="link_Cliente_API REST Server"><path d="M50.03,281 C94.02,281 191.31,281 258.84,281 " fill="none" id="Cliente-to-API REST Server" style="stroke:#181818;stroke-width:1.0;"/><polygon fill="#181818" points="264.84,281,255.84,277,259.84,281,255.84,285,264.84,281" style="stroke:#181818;stroke-width:1.0;"/><text fill="#000000" font-family="sans-serif" font-size="13" lengthAdjust="spacing" textLength="111" x="81" y="277.4951">REST (POST/GET)</text></g><!--link API REST Server to Gestor de Recursos--><g id="link_API REST Server_Gestor de Recursos"><path d="M393.26,281 C432.21,281 476.29,281 516.87,281 " fill="none" id="API REST Server-to-Gestor de Recursos" style="stroke:#181818;stroke-width:1.0;"/><polygon fill="#181818" points="522.87,281,513.87,277,517.87,281,513.87,285,522.87,281" style="stroke:#181818;stroke-width:1.0;"/></g><!--link Gestor de Recursos to Broker de Mensajes--><g id="link_Gestor de Recursos_Broker de Mensajes"><path d="M670.34,286.04 C710.37,288.81 753.8543,291.8263 793.7843,294.5863 " fill="none" id="Gestor de Recursos-to-Broker de Mensajes" style="stroke:#181818;stroke-width:1.0;"/><polygon fill="#181818" points="799.77,295,791.0672,290.3889,794.7819,294.6552,790.5156,298.3699,799.77,295" style="stroke:#181818;stroke-width:1.0;"/></g><!--link Broker de Mensajes to Persistencia Local--><g id="link_Broker de Mensajes_Persistencia Local"><path d="M946.02,300 C965.89,300 981.35,300 1000.9,300 " fill="none" id="Broker de Mensajes-to-Persistencia Local" style="stroke:#181818;stroke-width:1.0;"/><polygon fill="#181818" points="1006.9,300,997.9,296,1001.9,300,997.9,304,1006.9,300" style="stroke:#181818;stroke-width:1.0;"/></g><!--link Broker de Mensajes to Replicador--><g id="link_Broker de Mensajes_Replicador"><path d="M926.16,319.08 C958.6,330.96 994.1752,343.9787 1024.7652,355.1687 " fill="none" id="Broker de Mensajes-to-Replicador" style="stroke:#181818;stroke-width:1.0;"/><polygon fill="#181818" points="1030.4,357.23,1023.3219,350.3816,1025.7043,355.5123,1020.5736,357.8947,1030.4,357.23" style="stroke:#181818;stroke-width:1.0;"/></g><!--link Replicador to gRPC Peer Manager--><g id="link_Replicador_gRPC Peer Manager"><path d="M1118.83,361.2 C1144.69,354.16 1172.3306,346.6359 1201.8306,338.6059 " fill="none" id="Replicador-to-gRPC Peer Manager" style="stroke:#181818;stroke-width:1.0;"/><polygon fill="#181818" points="1207.62,337.03,1197.8854,335.5343,1202.7955,338.3432,1199.9866,343.2534,1207.62,337.03" style="stroke:#181818;stroke-width:1.0;"/></g><!--link Gestor de Recursos to gRPC Peer Manager--><g id="link_Gestor de Recursos_gRPC Peer Manager"><path d="M670.11,268.36 C775.27,252.35 975.6,230.52 1142,263 C1177.26,269.88 1209.5482,283.3278 1236.1982,296.3378 " fill="none" id="Gestor de Recursos-to-gRPC Peer Manager" style="stroke:#181818;stroke-width:1.0;"/><polygon fill="#181818" points="1241.59,298.97,1235.2571,291.4272,1237.0968,296.7765,1231.7475,298.6163,1241.59,298.97" style="stroke:#181818;stroke-width:1.0;"/></g><!--link NodeA to NodeB--><g id="link_NodeA_NodeB"><path d="M435.3107,191.8348 C438.2082,191.0599 441.1239,190.2801 444.0521,189.497 C455.7645,186.3647 467.6751,183.1794 479.4092,180.0413 C502.8775,173.765 519.8437,169.2277 538.9037,164.1302 " fill="none" id="NodeA-to-NodeB" style="stroke:#181818;stroke-width:1.0;stroke-dasharray:7.0,7.0;"/><polygon fill="#181818" points="544.7,162.58,534.9721,161.0411,539.8698,163.8718,537.039,168.7695,544.7,162.58" style="stroke:#181818;stroke-width:1.0;"/><text fill="#000000" font-family="sans-serif" font-size="13" lengthAdjust="spacing" textLength="68" x="424" y="175.4951">gRPC Sync</text></g><!--link NodeA to NodeC--><g id="link_NodeA_NodeC"><path d="M364.8003,191.9354 C365.9295,191.0779 367.0769,190.2115 368.241,189.338 C370.5694,187.5909 372.9647,185.8153 375.4155,184.0243 C380.317,180.4424 385.4401,176.7992 390.6917,173.2009 C401.195,166.0044 412.2125,158.9875 423,153 C560.48,76.69 612.76,83.23 770,84 C786.56,84.08 798.6303,84.181 814.9003,84.341 " fill="none" id="NodeA-to-NodeC" style="stroke:#181818;stroke-width:1.0;stroke-dasharray:7.0,7.0;"/><polygon fill="#181818" points="820.9,84.4,811.9398,80.3117,815.9002,84.3508,811.8611,88.3113,820.9,84.4" style="stroke:#181818;stroke-width:1.0;"/><text fill="#000000" font-family="sans-serif" font-size="13" lengthAdjust="spacing" textLength="68" x="562.5" y="80.4951">gRPC Sync</text></g><!--link NodeB to NodeC--><g id="link_NodeB_NodeC"><path d="M648.17,137.19 C697.27,125.74 765.5367,109.8225 814.8567,98.3225 " fill="none" id="NodeB-to-NodeC" style="stroke:#181818;stroke-width:1.0;stroke-dasharray:7.0,7.0;"/><polygon fill="#181818" points="820.7,96.96,811.0268,95.1082,815.8306,98.0954,812.8434,102.8992,820.7,96.96" style="stroke:#181818;stroke-width:1.0;"/><text fill="#000000" font-family="sans-serif" font-size="13" lengthAdjust="spacing" textLength="68" x="701" y="106.4951">gRPC Sync</text></g><!--SRC=[tPEnJiCm48PtFyKf4mmjUuTAILHLI8H6IJR4S7AkgQbhHxQXgX0lnigBuJHLYAZBNhpTVR_j_p_PTYjKYmPtmFMkrOgKAzr14XZY3bKZYTb1OZTOwxrG3QnHMcAIrWwS1YEQZODQT7k4LemXTzf0AeK_ZXXhaM-n8OXI-VLf7Hd8H5rBsgCXo5PP1EyC_1eiGFIeQzqXY2D02xwa-AJgrbEStqEnA2ieoRoHUVuXIxBTvJL1GVpLM6r7C35wIqUOaRBuGcFO57aAENNsK7c_urCBQgNWFlwucPEnmkTHN20yQ8woXn_iOfnaY9FyXpZf42UzeZW-qEbjmcGoFxSBixwyoLTbTRTSLBViN7FS6OeJQlRgKBvGirU7_5zMZqSmBdeQ6DuVFaFg_WTEf_FJuvt1KLKU5F_5qZEMN63V]--></g></svg>