<?xml version="1.0" encoding="us-ascii" standalone="no"?><svg xmlns="http://www.w3.org/2000/svg" xmlns:xlink="http://www.w3.org/1999/xlink" contentStyleType="text/css" height="1205px" preserveAspectRatio="none" style="width:391px;height:1205px;background:#FFFFFF;" version="1.1" viewBox="0 0 391 1205" width="391px" zoomAndPan="magnify"><defs/><g><!--cluster Middleware MOM--><g id="cluster_Middleware MOM"><rect fill="none" height="1192" rx="2.5" ry="2.5" style="stroke:#181818;stroke-width:1.0;" width="265" x="120" y="7"/><text fill="#000000" font-family="sans-serif" font-size="14" font-weight="bold" lengthAdjust="spacing" textLength="123" x="191" y="23.5332">Middleware MOM</text></g><g id="elem_UC1"><ellipse cx="252.5842" cy="58.8168" fill="#F1F1F1" rx="67.0842" ry="15.8168" style="stroke:#181818;stroke-width:0.5;"/><text fill="#000000" font-family="sans-serif" font-size="14" lengthAdjust="spacing" textLength="79" x="210.0842" y="63.3334">Autenticarse</text></g><g id="elem_UC2"><ellipse cx="252.2537" cy="125.7507" fill="#F1F1F1" rx="66.7537" ry="15.7507" style="stroke:#181818;stroke-width:0.5;"/><text fill="#000000" font-family="sans-serif" font-size="14" lengthAdjust="spacing" textLength="78" x="210.2537" y="130.2673">Crear t&#243;pico</text></g><g id="elem_UC3"><ellipse cx="252.5677" cy="194.2135" fill="#F1F1F1" rx="71.5677" ry="16.7135" style="stroke:#181818;stroke-width:0.5;"/><text fill="#000000" font-family="sans-serif" font-size="14" lengthAdjust="spacing" textLength="92" x="203.5677" y="198.7301">Eliminar t&#243;pico</text></g><g id="elem_UC4"><ellipse cx="252.2688" cy="262.1538" fill="#F1F1F1" rx="68.7688" ry="16.1538" style="stroke:#181818;stroke-width:0.5;"/><text fill="#000000" font-family="sans-serif" font-size="14" lengthAdjust="spacing" textLength="84" x="207.2688" y="266.6704">Listar t&#243;picos</text></g><g id="elem_UC5"><ellipse cx="252.6908" cy="329.0728" fill="#F1F1F1" rx="58.6908" ry="15.5728" style="stroke:#181818;stroke-width:0.5;"/><text fill="#000000" font-family="sans-serif" font-size="14" lengthAdjust="spacing" textLength="66" x="216.6908" y="333.5894">Crear cola</text></g><g id="elem_UC6"><ellipse cx="252.4169" cy="395.8834" fill="#F1F1F1" rx="67.4169" ry="15.8834" style="stroke:#181818;stroke-width:0.5;"/><text fill="#000000" font-family="sans-serif" font-size="14" lengthAdjust="spacing" textLength="80" x="209.4169" y="400.4">Eliminar cola</text></g><g id="elem_UC7"><ellipse cx="252.6242" cy="463.1042" fill="#F1F1F1" rx="63.1242" ry="15.6042" style="stroke:#181818;stroke-width:0.5;"/><text fill="#000000" font-family="sans-serif" font-size="14" lengthAdjust="spacing" textLength="72" x="213.6242" y="467.6208">Listar colas</text></g><g id="elem_UC8"><ellipse cx="252.63" cy="535.026" fill="#F1F1F1" rx="95.63" ry="21.526" style="stroke:#181818;stroke-width:0.5;"/><text fill="#000000" font-family="sans-serif" font-size="14" lengthAdjust="spacing" textLength="151" x="177.13" y="538.7545">Enviar mensaje a t&#243;pico</text></g><g id="elem_UC9"><ellipse cx="252.3974" cy="611.9795" fill="#F1F1F1" rx="90.3974" ry="20.4795" style="stroke:#181818;stroke-width:0.5;"/><text fill="#000000" font-family="sans-serif" font-size="14" lengthAdjust="spacing" textLength="139" x="182.8974" y="615.708">Enviar mensaje a cola</text></g><g id="elem_UC10"><ellipse cx="252.4506" cy="690.0901" fill="#F1F1F1" rx="100.9506" ry="22.5901" style="stroke:#181818;stroke-width:0.5;"/><text fill="#000000" font-family="sans-serif" font-size="14" lengthAdjust="spacing" textLength="163" x="170.9506" y="693.8186">Recibir mensaje de t&#243;pico</text></g><g id="elem_UC11"><ellipse cx="252.63" cy="769.026" fill="#F1F1F1" rx="95.63" ry="21.526" style="stroke:#181818;stroke-width:0.5;"/><text fill="#000000" font-family="sans-serif" font-size="14" lengthAdjust="spacing" textLength="151" x="177.13" y="772.7545">Recibir mensaje de cola</text></g><g id="elem_UC12"><ellipse cx="252.3974" cy="845.9795" fill="#F1F1F1" rx="90.3974" ry="20.4795" style="stroke:#181818;stroke-width:0.5;"/><text fill="#000000" font-family="sans-serif" font-size="14" lengthAdjust="spacing" textLength="139" x="182.8974" y="849.708">Conexi&#243;n permanente</text></g><g id="elem_UC13"><ellipse cx="252.3945" cy="927.1789" fill="#F1F1F1" rx="116.3945" ry="25.6789" style="stroke:#181818;stroke-width:0.5;"/><text fill="#000000" font-family="sans-serif" font-size="14" lengthAdjust="spacing" textLength="197" x="153.8945" y="930.9074">Conexi&#243;n temporal (sin estado)</text></g><g id="elem_UC14"><ellipse cx="252.6887" cy="1006.0377" fill="#F1F1F1" rx="80.6887" ry="18.5377" style="stroke:#181818;stroke-width:0.5;"/><text fill="#000000" font-family="sans-serif" font-size="14" lengthAdjust="spacing" textLength="116" x="194.0015" y="1009.9661">Replicar mensajes</text></g><g id="elem_UC15"><ellipse cx="252.3449" cy="1082.769" fill="#F1F1F1" rx="101.8449" ry="22.769" style="stroke:#181818;stroke-width:0.5;"/><text fill="#000000" font-family="sans-serif" font-size="14" lengthAdjust="spacing" textLength="165" x="169.8449" y="1086.4975">Particionar t&#243;picos y colas</text></g><g id="elem_UC16"><ellipse cx="252.3974" cy="1161.9795" fill="#F1F1F1" rx="90.3974" ry="20.4795" style="stroke:#181818;stroke-width:0.5;"/><text fill="#000000" font-family="sans-serif" font-size="14" lengthAdjust="spacing" textLength="139" x="182.8974" y="1165.708">Recuperarse de fallos</text></g><!--entity Usuario--><g id="elem_Usuario"><ellipse cx="41" cy="432.5" fill="#F1F1F1" rx="8" ry="8" style="stroke:#181818;stroke-width:0.5;"/><path d="M41,440.5 L41,467.5 M28,448.5 L54,448.5 M41,467.5 L28,482.5 M41,467.5 L54,482.5 " fill="none" style="stroke:#181818;stroke-width:0.5;"/><text fill="#000000" font-family="sans-serif" font-size="14" lengthAdjust="spacing" textLength="48" x="17" y="498.5332">Usuario</text></g><!--entity Nodo--><g id="elem_Nodo"><ellipse cx="41" cy="1052.5" fill="#F1F1F1" rx="8" ry="8" style="stroke:#181818;stroke-width:0.5;"/><path d="M41,1060.5 L41,1087.5 M28,1068.5 L54,1068.5 M41,1087.5 L28,1102.5 M41,1087.5 L54,1102.5 " fill="none" style="stroke:#181818;stroke-width:0.5;"/><text fill="#000000" font-family="sans-serif" font-size="14" lengthAdjust="spacing" textLength="70" x="6" y="1118.5332">Nodo MOM</text></g><!--link Usuario to UC1--><g id="link_Usuario_UC1"><path d="M44.1,423.99 C49.51,338.68 66.78,139.34 112,92 C130.82,72.29 153.1298,64.2547 179.2898,60.5347 " fill="none" id="Usuario-to-UC1" style="stroke:#181818;stroke-width:1.0;"/><polygon fill="#181818" points="185.23,59.69,175.7565,56.9969,180.2798,60.3939,176.8828,64.9172,185.23,59.69" style="stroke:#181818;stroke-width:1.0;"/></g><!--link Usuario to UC2--><g id="link_Usuario_UC2"><path d="M45.95,424 C54.14,350.86 75.33,197.11 112,160 C131.18,140.58 153.5486,132.4645 179.6486,128.4845 " fill="none" id="Usuario-to-UC2" style="stroke:#181818;stroke-width:1.0;"/><polygon fill="#181818" points="185.58,127.58,176.0799,124.9824,180.6371,128.3337,177.2858,132.891,185.58,127.58" style="stroke:#181818;stroke-width:1.0;"/></g><!--link Usuario to UC3--><g id="link_Usuario_UC3"><path d="M42.33,423.62 C44.98,371.34 57.7,279.63 112,228 C130.7,210.22 151.1707,202.2993 175.9607,197.9393 " fill="none" id="Usuario-to-UC3" style="stroke:#181818;stroke-width:1.0;"/><polygon fill="#181818" points="181.87,196.9,172.3132,194.5194,176.9456,197.7661,173.6989,202.3985,181.87,196.9" style="stroke:#181818;stroke-width:1.0;"/></g><!--link Usuario to UC4--><g id="link_Usuario_UC4"><path d="M48.01,423.94 C55.96,385.72 73.74,328.65 112,296 C132.19,278.77 153.8181,271.0147 179.0881,266.6347 " fill="none" id="Usuario-to-UC4" style="stroke:#181818;stroke-width:1.0;"/><polygon fill="#181818" points="185,265.61,175.4491,263.2058,180.0735,266.4639,176.8153,271.0883,185,265.61" style="stroke:#181818;stroke-width:1.0;"/></g><!--link Usuario to UC5--><g id="link_Usuario_UC5"><path d="M60.22,423.79 C72.08,402.44 89.53,377.33 112,362 C136.57,345.24 162.6668,337.8331 189.8368,333.7431 " fill="none" id="Usuario-to-UC5" style="stroke:#181818;stroke-width:1.0;"/><polygon fill="#181818" points="195.77,332.85,186.2748,330.2343,190.8257,333.5943,187.4657,338.1451,195.77,332.85" style="stroke:#181818;stroke-width:1.0;"/></g><!--link Usuario to UC6--><g id="link_Usuario_UC6"><path d="M65.16,450.64 C78.56,443.85 95.91,435.69 112,430 C140.44,419.95 167.2973,413.0761 193.8973,407.2861 " fill="none" id="Usuario-to-UC6" style="stroke:#181818;stroke-width:1.0;"/><polygon fill="#181818" points="199.76,406.01,190.1152,404.0157,194.8744,407.0734,191.8167,411.8327,199.76,406.01" style="stroke:#181818;stroke-width:1.0;"/></g><!--link Usuario to UC7--><g id="link_Usuario_UC7"><path d="M65.22,463 C94.94,463 141.59,463 183.35,463 " fill="none" id="Usuario-to-UC7" style="stroke:#181818;stroke-width:1.0;"/><polygon fill="#181818" points="189.35,463,180.35,459,184.35,463,180.35,467,189.35,463" style="stroke:#181818;stroke-width:1.0;"/></g><!--link Usuario to UC8--><g id="link_Usuario_UC8"><path d="M65.23,475.16 C78.66,481.88 96.01,490.04 112,496 C136.04,504.95 157.2755,511.4031 181.0955,517.8031 " fill="none" id="Usuario-to-UC8" style="stroke:#181818;stroke-width:1.0;"/><polygon fill="#181818" points="186.89,519.36,179.2362,513.1617,182.0613,518.0626,177.1603,520.8877,186.89,519.36" style="stroke:#181818;stroke-width:1.0;"/></g><!--link Usuario to UC9--><g id="link_Usuario_UC9"><path d="M57.82,502.23 C69.43,526.28 87.46,555.84 112,574 C130.06,587.36 146.7325,594.5224 168.3425,600.1324 " fill="none" id="Usuario-to-UC9" style="stroke:#181818;stroke-width:1.0;"/><polygon fill="#181818" points="174.15,601.64,166.4438,595.5069,169.3104,600.3836,164.4337,603.2502,174.15,601.64" style="stroke:#181818;stroke-width:1.0;"/></g><!--link Usuario to UC10--><g id="link_Usuario_UC10"><path d="M46.32,502.37 C53.05,544.72 69.99,611.18 112,650 C126.71,663.59 140.0087,670.8246 159.2487,676.7846 " fill="none" id="Usuario-to-UC10" style="stroke:#181818;stroke-width:1.0;"/><polygon fill="#181818" points="164.98,678.56,157.5666,672.076,160.2039,677.0805,155.1994,679.7178,164.98,678.56" style="stroke:#181818;stroke-width:1.0;"/></g><!--link Usuario to UC11--><g id="link_Usuario_UC11"><path d="M47.43,502.18 C57.34,568.26 80.32,697.81 112,730 C126.46,744.7 140.2134,752.2884 160.0534,758.1184 " fill="none" id="Usuario-to-UC11" style="stroke:#181818;stroke-width:1.0;"/><polygon fill="#181818" points="165.81,759.81,158.3028,753.4349,161.0128,758.4003,156.0474,761.1104,165.81,759.81" style="stroke:#181818;stroke-width:1.0;"/></g><!--link Usuario to UC12--><g id="link_Usuario_UC12"><path d="M44.86,502.22 C51.53,582.98 70.8,764 112,808 C126.67,823.67 141.3094,831.5386 162.0194,837.1586 " fill="none" id="Usuario-to-UC12" style="stroke:#181818;stroke-width:1.0;"/><polygon fill="#181818" points="167.81,838.73,160.1717,832.5126,162.9845,837.4205,158.0766,840.2333,167.81,838.73" style="stroke:#181818;stroke-width:1.0;"/></g><!--link Usuario to UC13--><g id="link_Usuario_UC13"><path d="M43.38,502.04 C47.45,595.26 62.45,827.31 112,884 C123.51,897.17 133.3601,904.1799 149.7701,910.5799 " fill="none" id="Usuario-to-UC13" style="stroke:#181818;stroke-width:1.0;"/><polygon fill="#181818" points="155.36,912.76,148.4285,905.7632,150.7017,910.9432,145.5217,913.2165,155.36,912.76" style="stroke:#181818;stroke-width:1.0;"/></g><!--link Nodo to UC14--><g id="link_Nodo_UC14"><path d="M76.27,1060.38 C87.34,1053.77 99.89,1046.99 112,1042 C136.97,1031.7 159.8578,1025.0472 184.7278,1019.2272 " fill="none" id="Nodo-to-UC14" style="stroke:#181818;stroke-width:1.0;"/><polygon fill="#181818" points="190.57,1017.86,180.8953,1016.016,185.7015,1018.9993,182.7182,1023.8055,190.57,1017.86" style="stroke:#181818;stroke-width:1.0;"/></g><!--link Nodo to UC15--><g id="link_Nodo_UC15"><path d="M76.13,1083 C96.53,1083 117.63,1083 144.41,1083 " fill="none" id="Nodo-to-UC15" style="stroke:#181818;stroke-width:1.0;"/><polygon fill="#181818" points="150.41,1083,141.41,1079,145.41,1083,141.41,1087,150.41,1083" style="stroke:#181818;stroke-width:1.0;"/></g><!--link Nodo to UC16--><g id="link_Nodo_UC16"><path d="M76.03,1104.69 C87.2,1111.19 99.86,1117.93 112,1123 C136.01,1133.04 157.6059,1139.8092 181.7259,1146.1292 " fill="none" id="Nodo-to-UC16" style="stroke:#181818;stroke-width:1.0;"/><polygon fill="#181818" points="187.53,1147.65,179.8378,1141.4994,182.6933,1146.3827,177.81,1149.2382,187.53,1147.65" style="stroke:#181818;stroke-width:1.0;"/></g><!--SRC=[XPDDRi8m48NtFiM8LRj08a02R2fLgBlILbGSO9eCrCMn8zjfYwgUYYDmiIOqWMG0aTsBl_dnpBEYfGTlmChLkuT4MegzD5gujTGPMamXmtYDAthr6qLG7gDUAH82OsyiB5oELffATPvCOc3sFEi0EYY548SGwCnaaYZwGal_p8yG0eelTnIZAu3xt9FsCaRhQ9zYCGtQnDGIMl2xRIPZKo7zDlAWP2hr2JLeKu_I-IFZAcXuhbfi55RduOLI3IGwMwS4wY8ZbaH_oe98IJly843Mz_WAtIWzQQDpYkMRFB89iTH1xsf08tl0Ls4qVSlTLaD6DaLTREwmjFubr5EQ6OiARfpKGCLi4dDRHmsu7-QKgT8DTKVr10EsfnUqXMiAtpOs2flMq8FmvAvvqNVfjFAUIrJgu88W4hz2LDQ6RlTkxyEsxZCzO7h8TCXqnFI8wJ7J4zvFZ__W7GQynNA- -mTQoM5BXIqL_G40]--></g></svg>